<svg width="14" height="14" viewBox="0 0 14 14" fill="none" xmlns="http://www.w3.org/2000/svg">
<g opacity="0.7">
<path d="M1.78906 6.60455C1.78906 4.59957 1.78906 3.59681 2.4122 2.97421C3.0348 2.35107 4.03755 2.35107 6.04253 2.35107H8.16927C10.1743 2.35107 11.177 2.35107 11.7996 2.97421C12.4227 3.59681 12.4227 4.59957 12.4227 6.60455V7.66791C12.4227 9.6729 12.4227 10.6757 11.7996 11.2983C11.177 11.9214 10.1743 11.9214 8.16927 11.9214H6.04253C4.03755 11.9214 3.0348 11.9214 2.4122 11.2983C1.78906 10.6757 1.78906 9.6729 1.78906 7.66791V6.60455Z" stroke="#08063C" stroke-width="1.09375"/>
<path opacity="0.5" d="M4.44727 2.35099V1.55347M9.76411 2.35099V1.55347M2.05469 5.00941H12.1567" stroke="#08063C" stroke-width="1.09375" stroke-linecap="round"/>
<path d="M10.2962 9.26291C10.2962 9.40392 10.2402 9.53916 10.1405 9.63887C10.0408 9.73858 9.90555 9.7946 9.76454 9.7946C9.62353 9.7946 9.48829 9.73858 9.38858 9.63887C9.28887 9.53916 9.23286 9.40392 9.23286 9.26291C9.23286 9.1219 9.28887 8.98666 9.38858 8.88695C9.48829 8.78724 9.62353 8.73123 9.76454 8.73123C9.90555 8.73123 10.0408 8.78724 10.1405 8.88695C10.2402 8.98666 10.2962 9.1219 10.2962 9.26291ZM10.2962 7.13618C10.2962 7.27719 10.2402 7.41242 10.1405 7.51213C10.0408 7.61184 9.90555 7.66786 9.76454 7.66786C9.62353 7.66786 9.48829 7.61184 9.38858 7.51213C9.28887 7.41242 9.23286 7.27719 9.23286 7.13618C9.23286 6.99516 9.28887 6.85993 9.38858 6.76022C9.48829 6.66051 9.62353 6.60449 9.76454 6.60449C9.90555 6.60449 10.0408 6.66051 10.1405 6.76022C10.2402 6.85993 10.2962 6.99516 10.2962 7.13618ZM7.6378 9.26291C7.6378 9.40392 7.58179 9.53916 7.48208 9.63887C7.38237 9.73858 7.24713 9.7946 7.10612 9.7946C6.96511 9.7946 6.82987 9.73858 6.73016 9.63887C6.63045 9.53916 6.57444 9.40392 6.57444 9.26291C6.57444 9.1219 6.63045 8.98666 6.73016 8.88695C6.82987 8.78724 6.96511 8.73123 7.10612 8.73123C7.24713 8.73123 7.38237 8.78724 7.48208 8.88695C7.58179 8.98666 7.6378 9.1219 7.6378 9.26291ZM7.6378 7.13618C7.6378 7.27719 7.58179 7.41242 7.48208 7.51213C7.38237 7.61184 7.24713 7.66786 7.10612 7.66786C6.96511 7.66786 6.82987 7.61184 6.73016 7.51213C6.63045 7.41242 6.57444 7.27719 6.57444 7.13618C6.57444 6.99516 6.63045 6.85993 6.73016 6.76022C6.82987 6.66051 6.96511 6.60449 7.10612 6.60449C7.24713 6.60449 7.38237 6.66051 7.48208 6.76022C7.58179 6.85993 7.6378 6.99516 7.6378 7.13618ZM4.97938 9.26291C4.97938 9.40392 4.92337 9.53916 4.82366 9.63887C4.72395 9.73858 4.58871 9.7946 4.4477 9.7946C4.30669 9.7946 4.17145 9.73858 4.07174 9.63887C3.97203 9.53916 3.91602 9.40392 3.91602 9.26291C3.91602 9.1219 3.97203 8.98666 4.07174 8.88695C4.17145 8.78724 4.30669 8.73123 4.4477 8.73123C4.58871 8.73123 4.72395 8.78724 4.82366 8.88695C4.92337 8.98666 4.97938 9.1219 4.97938 9.26291ZM4.97938 7.13618C4.97938 7.27719 4.92337 7.41242 4.82366 7.51213C4.72395 7.61184 4.58871 7.66786 4.4477 7.66786C4.30669 7.66786 4.17145 7.61184 4.07174 7.51213C3.97203 7.41242 3.91602 7.27719 3.91602 7.13618C3.91602 6.99516 3.97203 6.85993 4.07174 6.76022C4.17145 6.66051 4.30669 6.60449 4.4477 6.60449C4.58871 6.60449 4.72395 6.66051 4.82366 6.76022C4.92337 6.85993 4.97938 6.99516 4.97938 7.13618Z" fill="#08063C"/>
</g>
</svg>
