<svg width="19" height="18" viewBox="0 0 19 18" fill="none" xmlns="http://www.w3.org/2000/svg">
<g clip-path="url(#clip0_1_145)">
<path d="M9.37565 10.2915C8.98888 10.2915 8.61794 10.1379 8.34445 9.86437C8.07096 9.59088 7.91732 9.21994 7.91732 8.83317C7.91732 8.4464 8.07096 8.07546 8.34445 7.80197C8.61794 7.52848 8.98888 7.37484 9.37565 7.37484C9.76243 7.37484 10.1334 7.52848 10.4068 7.80197C10.6803 8.07546 10.834 8.4464 10.834 8.83317C10.834 9.21994 10.6803 9.59088 10.4068 9.86437C10.1334 10.1379 9.76243 10.2915 9.37565 10.2915ZM10.834 4.45817C10.4472 4.45817 10.0763 4.30453 9.80279 4.03103C9.5293 3.75754 9.37565 3.38661 9.37565 2.99984C9.37565 2.61306 9.5293 2.24213 9.80279 1.96864C10.0763 1.69515 10.4472 1.5415 10.834 1.5415C11.2208 1.5415 11.5917 1.69515 11.8652 1.96864C12.1387 2.24213 12.2923 2.61306 12.2923 2.99984C12.2923 3.38661 12.1387 3.75754 11.8652 4.03103C11.5917 4.30453 11.2208 4.45817 10.834 4.45817ZM7.91732 16.1248C8.30409 16.1248 8.67502 15.9712 8.94851 15.6977C9.22201 15.4242 9.37565 15.0533 9.37565 14.6665C9.37565 14.2797 9.22201 13.9088 8.94851 13.6353C8.67502 13.3618 8.30409 13.2082 7.91732 13.2082C7.53054 13.2082 7.15961 13.3618 6.88612 13.6353C6.61263 13.9088 6.45898 14.2797 6.45898 14.6665C6.45898 15.0533 6.61263 15.4242 6.88612 15.6977C7.15961 15.9712 7.53054 16.1248 7.91732 16.1248Z" stroke="white" stroke-width="1.09375"/>
<path opacity="0.5" d="M9.37565 14.6667H14.4798M14.4798 8.83333H10.834M14.4798 3H12.2923M9.37565 3H4.27148M7.91732 8.83333H4.27148M4.27148 14.6667H6.21617" stroke="white" stroke-width="1.09375" stroke-linecap="round"/>
</g>
<defs>
<clipPath id="clip0_1_145">
<rect width="17.5" height="17.5" fill="white" transform="translate(0.625 0.083252)"/>
</clipPath>
</defs>
</svg>
