<svg width="19" height="18" viewBox="0 0 19 18" fill="none" xmlns="http://www.w3.org/2000/svg">
<g opacity="0.6">
<path d="M16.8333 16.1873H2.25M2.97917 16.1873V8.41952C2.9792 8.11063 3.04465 7.80525 3.17121 7.52348C3.29776 7.2417 3.48256 6.98993 3.71344 6.78473L8.08844 2.89608C8.48885 2.54018 9.00595 2.3436 9.54167 2.3436C10.0774 2.3436 10.5945 2.54018 10.9949 2.89608L15.3699 6.78473C15.6008 6.98993 15.7856 7.2417 15.9121 7.52348C16.0387 7.80525 16.1041 8.11063 16.1042 8.41952V16.1873" stroke="#091812" stroke-width="1.09375" stroke-linecap="round"/>
<path opacity="0.5" d="M7.35352 11.448H11.7285M7.35352 13.6355H11.7285" stroke="#091812" stroke-width="1.09375" stroke-linecap="round"/>
<path opacity="0.5" d="M13.916 16.1873V11.8123C13.916 10.4371 13.916 9.75024 13.4887 9.32295C13.0614 8.89566 12.3746 8.89566 10.9993 8.89566H8.08268C6.70747 8.89566 6.0206 8.89566 5.59331 9.32295C5.16602 9.75024 5.16602 10.4371 5.16602 11.8123V16.1873" stroke="#091812" stroke-width="1.09375"/>
</g>
</svg>
