<svg width="38" height="38" viewBox="0 0 38 38" fill="none" xmlns="http://www.w3.org/2000/svg">
<path d="M16.0846 12.7463C17.7207 9.81291 18.5379 8.34546 19.7608 8.34546C20.9837 8.34546 21.801 9.81291 23.437 12.7463L23.8593 13.5058C24.3242 14.3398 24.5581 14.7561 24.9197 15.031C25.2812 15.306 25.7324 15.4077 26.6363 15.6128L27.4566 15.7982C30.633 16.5167 32.222 16.8767 32.5987 18.092C32.977 19.3073 31.8939 20.5727 29.7276 23.105L29.1686 23.7582C28.5534 24.4783 28.2465 24.8383 28.1067 25.2834C27.97 25.7285 28.0156 26.2085 28.1083 27.1671L28.1933 28.0421C28.5215 31.4205 28.684 33.1098 27.6951 33.8602C26.7061 34.6122 25.2189 33.9271 22.2461 32.5584L21.4759 32.2029C20.6313 31.814 20.209 31.6195 19.7608 31.6195C19.3127 31.6195 18.8904 31.814 18.0442 32.2029L17.2756 32.5584C14.3027 33.9255 12.8155 34.6122 11.8266 33.8602C10.8376 33.1098 11.0017 31.4205 11.3283 28.0421L11.4134 27.1686C11.506 26.2085 11.5531 25.7285 11.4134 25.2849C11.2767 24.8383 10.9683 24.4798 10.353 23.7597L9.7925 23.1035C7.62779 20.5727 6.54467 19.3057 6.92141 18.0905C7.30118 16.8752 8.88864 16.5167 12.0651 15.7982L12.8854 15.6128C13.7892 15.4077 14.2404 15.306 14.602 15.031C14.965 14.7576 15.1974 14.3398 15.6623 13.5058L16.0846 12.7463Z" fill="#FAB446"/>
<path opacity="0.5" d="M8.16645 4.54769C8.21203 4.38818 8.4961 4.38667 8.54319 4.54769C8.75586 5.27989 9.15083 6.36149 9.74783 6.95546C10.3448 7.54791 11.431 7.9368 12.1632 8.14491C12.3257 8.19048 12.3257 8.47456 12.1662 8.52165C11.434 8.73432 10.3509 9.12929 9.75695 9.72629C9.1645 10.3233 8.77713 11.4095 8.56901 12.1417C8.52344 12.3042 8.23785 12.3042 8.19076 12.1447C7.97808 11.4125 7.58312 10.3294 6.98611 9.73541C6.38911 9.14296 5.30447 8.75559 4.57075 8.54747C4.40972 8.5019 4.40821 8.21631 4.56923 8.16922C5.30144 7.95654 6.38303 7.56158 6.977 6.96457C7.56945 6.36757 7.95834 5.28141 8.16645 4.54769Z" fill="#FAB446"/>
<path opacity="0.5" fill-rule="evenodd" clip-rule="evenodd" d="M29.635 5.68701C29.9371 5.68701 30.2269 5.80705 30.4406 6.02071C30.6543 6.23438 30.7743 6.52417 30.7743 6.82633V7.20611H31.1541C31.4562 7.20611 31.746 7.32614 31.9597 7.53981C32.1734 7.75347 32.2934 8.04326 32.2934 8.34543C32.2934 8.6476 32.1734 8.93739 31.9597 9.15106C31.746 9.36472 31.4562 9.48476 31.1541 9.48476H30.7743V9.86453C30.7743 10.1667 30.6543 10.4565 30.4406 10.6702C30.2269 10.8838 29.9371 11.0039 29.635 11.0039C29.3328 11.0039 29.043 10.8838 28.8294 10.6702C28.6157 10.4565 28.4957 10.1667 28.4957 9.86453V9.48476H28.1159C27.8137 9.48476 27.5239 9.36472 27.3103 9.15106C27.0966 8.93739 26.9766 8.6476 26.9766 8.34543C26.9766 8.04326 27.0966 7.75347 27.3103 7.53981C27.5239 7.32614 27.8137 7.20611 28.1159 7.20611H28.4957V6.82633C28.4957 6.52417 28.6157 6.23438 28.8294 6.02071C29.043 5.80705 29.3328 5.68701 29.635 5.68701Z" fill="#FAB446"/>
</svg>
