<svg width="38" height="38" viewBox="0 0 38 38" fill="none" xmlns="http://www.w3.org/2000/svg">
<path opacity="0.5" d="M28.0644 10.7123L25.2844 7.93235C22.9359 5.58534 21.7632 4.41108 20.2395 3.9751C18.7159 3.5376 17.098 3.9113 13.8639 4.65869L11.9984 5.0886C9.2762 5.71598 7.91509 6.03044 6.98236 6.96164C6.05115 7.89437 5.7367 9.25548 5.10931 11.9777L4.67789 13.8432C3.93201 17.0788 3.55832 18.6952 3.9943 20.2188C4.4318 21.7425 5.60606 22.9152 7.95306 25.2622L10.733 28.0422C14.8194 32.13 16.861 34.1702 19.3979 34.1702C21.9364 34.1702 23.978 32.1285 28.0629 28.0437C32.1492 23.9573 34.1909 21.9156 34.1909 19.3772C34.1909 16.8403 32.1492 14.7971 28.0644 10.7123Z" fill="#469979"/>
<path d="M17.7051 22.5156C16.6827 21.4947 16.6918 20.0273 17.3025 18.8652C17.151 18.6463 17.0808 18.3812 17.1044 18.116C17.1279 17.8508 17.2436 17.6022 17.4313 17.4133C17.619 17.2245 17.867 17.1074 18.132 17.0824C18.3971 17.0573 18.6626 17.1259 18.8824 17.2762C19.3989 17.0028 19.9655 16.8569 20.5306 16.863C20.8328 16.8658 21.1214 16.9886 21.3331 17.2042C21.5448 17.4199 21.6621 17.7108 21.6593 18.013C21.6565 18.3151 21.5337 18.6038 21.3181 18.8155C21.1024 19.0271 20.8115 19.1445 20.5093 19.1417C20.1576 19.1546 19.8251 19.3059 19.5842 19.5624C18.9963 20.1503 19.1512 20.7397 19.3153 20.9053C19.4824 21.0709 20.0703 21.2243 20.6582 20.6364C21.8492 19.4455 23.906 19.0505 25.2246 20.3676C26.247 21.3899 26.2378 22.8574 25.6256 24.0195C25.7762 24.2384 25.8456 24.5031 25.8216 24.7678C25.7977 25.0325 25.6819 25.2805 25.4945 25.4688C25.307 25.6572 25.0596 25.7741 24.7951 25.7993C24.5305 25.8245 24.2655 25.7565 24.0458 25.6069C23.3641 25.9808 22.5733 26.1055 21.8097 25.9594C21.663 25.9292 21.5238 25.8705 21.3999 25.7866C21.2759 25.7026 21.1697 25.5951 21.0873 25.4701C21.005 25.3452 20.948 25.2052 20.9197 25.0582C20.8914 24.9112 20.8924 24.7601 20.9225 24.6134C20.9526 24.4668 21.0113 24.3276 21.0953 24.2036C21.1792 24.0797 21.2868 23.9735 21.4117 23.8911C21.5367 23.8087 21.6767 23.7518 21.8237 23.7235C21.9707 23.6952 22.1218 23.6962 22.2684 23.7263C22.5373 23.7825 22.9718 23.6944 23.344 23.3222C23.9334 22.7328 23.7784 22.1449 23.6128 21.9793C23.4473 21.8137 22.8594 21.6603 22.27 22.2482C21.079 23.4392 19.0221 23.8341 17.7051 22.5156ZM15.9946 16.386C16.2847 16.1057 16.5162 15.7705 16.6754 15.3998C16.8347 15.0292 16.9185 14.6305 16.922 14.2271C16.9255 13.8237 16.8486 13.4236 16.6958 13.0502C16.5431 12.6768 16.3175 12.3376 16.0322 12.0523C15.747 11.7671 15.4077 11.5415 15.0344 11.3887C14.661 11.236 14.2609 11.1591 13.8575 11.1626C13.4541 11.1661 13.0554 11.2499 12.6847 11.4091C12.3141 11.5684 11.9788 11.7998 11.6986 12.09C11.1451 12.663 10.8389 13.4305 10.8458 14.2271C10.8527 15.0237 11.1723 15.7857 11.7356 16.349C12.2989 16.9123 13.0609 17.2318 13.8575 17.2388C14.6541 17.2457 15.4216 16.9394 15.9946 16.386Z" fill="#469979"/>
</svg>
