<svg width="38" height="38" viewBox="0 0 38 38" fill="none" xmlns="http://www.w3.org/2000/svg">
<path fill-rule="evenodd" clip-rule="evenodd" d="M22.0594 26.5747L22.0503 29.6174C22.0487 30.3314 22.0472 30.6884 21.8239 30.9102C21.6006 31.132 21.2436 31.132 20.5266 31.132H15.9541C10.2119 31.132 7.34085 31.132 5.55591 29.3516C4.32544 28.1272 3.94414 26.3878 3.82414 23.5532C3.80135 22.9911 3.7892 22.7086 3.89401 22.5217C4.00035 22.3349 4.4181 22.1009 5.25664 21.6315C5.72898 21.3682 6.12243 20.9835 6.39633 20.5172C6.67024 20.051 6.81465 19.52 6.81465 18.9792C6.81465 18.4384 6.67024 17.9074 6.39633 17.4412C6.12243 16.9749 5.72898 16.5902 5.25664 16.3269C4.4181 15.859 3.99883 15.6235 3.89401 15.4367C3.7892 15.2498 3.80135 14.9688 3.82565 14.4052C3.94414 11.5706 4.32696 9.83271 5.55591 8.6068C7.33933 6.82642 10.2104 6.82642 15.9541 6.82642H21.2862C21.3859 6.82622 21.4847 6.84567 21.5769 6.88365C21.6692 6.92164 21.753 6.97742 21.8237 7.04781C21.8944 7.1182 21.9505 7.20182 21.9888 7.2939C22.0272 7.38597 22.047 7.4847 22.0472 7.58445L22.0594 11.3837C22.0594 12.2223 22.7415 12.9028 23.5815 12.9028V15.941C22.7415 15.941 22.0594 16.6216 22.0594 17.4601V20.4983C22.0594 21.3368 22.7415 22.0174 23.5815 22.0174V25.0556C22.7415 25.0556 22.0594 25.7361 22.0594 26.5747Z" fill="#AC7BEC"/>
<path opacity="0.5" d="M23.584 25.0555C24.424 25.0555 25.1061 25.7361 25.1061 26.5746V29.5763C25.1061 30.3085 25.1061 30.6746 25.3416 30.898C25.5755 31.1228 25.934 31.1076 26.6526 31.0772C29.4826 30.9572 31.2205 30.5744 32.4464 29.3515C33.6753 28.1271 34.0566 26.3862 34.1767 23.5516C34.1994 22.9895 34.2116 22.7085 34.1068 22.5217C34.002 22.3333 33.5827 22.0993 32.7441 21.6315C32.2718 21.3681 31.8784 20.9834 31.6045 20.5172C31.3306 20.0509 31.1861 19.5199 31.1861 18.9791C31.1861 18.4383 31.3306 17.9074 31.6045 17.4411C31.8784 16.9748 32.2718 16.5901 32.7441 16.3268C33.5827 15.8574 34.002 15.6234 34.1068 15.4366C34.2131 15.2482 34.1994 14.9672 34.1767 14.4051C34.0566 11.5705 33.6753 9.83111 32.4449 8.6052C31.1126 7.27599 29.1727 6.94027 25.8793 6.8552C25.7787 6.85277 25.6785 6.8705 25.5848 6.90735C25.4911 6.9442 25.4057 6.99943 25.3337 7.06978C25.2616 7.14013 25.2044 7.22419 25.1653 7.317C25.1262 7.4098 25.1061 7.50949 25.1061 7.61019V11.3836C25.1061 12.2222 24.424 12.9027 23.584 12.9027V15.9409C23.7837 15.9405 23.9816 15.9795 24.1663 16.0557C24.3509 16.1318 24.5187 16.2437 24.6601 16.3848C24.8015 16.5259 24.9137 16.6935 24.9902 16.878C25.0667 17.0625 25.1061 17.2603 25.1061 17.46V20.4982C25.1061 21.3368 24.424 22.0173 23.584 22.0173V25.0555Z" fill="#AC7BEC"/>
</svg>
