<svg width="38" height="38" viewBox="0 0 38 38" fill="none" xmlns="http://www.w3.org/2000/svg">
<path opacity="0.5" d="M5.59093 12.7843C3.81055 14.5632 3.81055 17.4282 3.81055 23.1567C3.81055 28.8852 3.81055 31.7502 5.59093 33.5291C7.36979 35.3095 10.2348 35.3095 15.9633 35.3095H22.0397C27.7682 35.3095 30.6332 35.3095 32.4121 33.5291C34.1925 31.7502 34.1925 28.8852 34.1925 23.1567C34.1925 17.4282 34.1925 14.5632 32.4121 12.7843C30.6332 11.0039 27.7682 11.0039 22.0397 11.0039H15.9633C10.2348 11.0039 7.36979 11.0039 5.59093 12.7843Z" fill="#5FC3DB"/>
<path d="M25.0762 17.0803C25.4791 17.0803 25.8655 16.9203 26.1503 16.6354C26.4352 16.3505 26.5953 15.9641 26.5953 15.5612C26.5953 15.1583 26.4352 14.7719 26.1503 14.487C25.8655 14.2022 25.4791 14.0421 25.0762 14.0421C24.6733 14.0421 24.2869 14.2022 24.002 14.487C23.7171 14.7719 23.5571 15.1583 23.5571 15.5612C23.5571 15.9641 23.7171 16.3505 24.002 16.6354C24.2869 16.9203 24.6733 17.0803 25.0762 17.0803ZM14.4425 15.5612C14.4425 15.9641 14.2824 16.3505 13.9976 16.6354C13.7127 16.9203 13.3263 17.0803 12.9234 17.0803C12.5205 17.0803 12.1341 16.9203 11.8492 16.6354C11.5643 16.3505 11.4043 15.9641 11.4043 15.5612C11.4043 15.1583 11.5643 14.7719 11.8492 14.487C12.1341 14.2022 12.5205 14.0421 12.9234 14.0421C13.3263 14.0421 13.7127 14.2022 13.9976 14.487C14.2824 14.7719 14.4425 15.1583 14.4425 15.5612ZM19.0788 3.78821H18.9208C17.5551 3.78821 16.4173 3.78821 15.515 3.90974C14.561 4.03734 13.6997 4.31989 13.0085 5.01108C12.3158 5.70379 12.0332 6.56512 11.9056 7.51759C11.7841 8.42145 11.7841 9.56078 11.7841 10.9249V11.0434C12.4783 11.0206 13.2348 11.0115 14.0627 11.007V11.0039C14.0627 9.53951 14.0658 8.55514 14.1645 7.82141C14.2587 7.12111 14.4212 6.82033 14.6202 6.62284C14.8177 6.42536 15.117 6.26282 15.8173 6.16711C16.551 6.06989 17.5354 6.06685 18.9998 6.06685C20.4642 6.06685 21.4486 6.06989 22.1823 6.16863C22.8826 6.26282 23.1834 6.42536 23.3809 6.62436C23.5783 6.82185 23.7409 7.12111 23.8366 7.82141C23.9338 8.55514 23.9368 9.53951 23.9368 11.0039V11.007C24.6965 11.0087 25.4561 11.0208 26.2155 11.0434V10.9249C26.2155 9.56078 26.2155 8.42145 26.094 7.51911C25.9664 6.56512 25.6838 5.70379 24.9911 5.0126C24.2999 4.31989 23.4386 4.03734 22.4846 3.90974C21.5822 3.78821 20.4429 3.78821 19.0788 3.78821Z" fill="#5FC3DB"/>
</svg>
