<svg width="14" height="17" viewBox="0 0 14 17" fill="none" xmlns="http://www.w3.org/2000/svg">
<path opacity="0.5" d="M1.25 7.02134C1.25 3.74228 3.86187 1.08374 7.08333 1.08374C10.3048 1.08374 12.9167 3.74228 12.9167 7.02134C12.9167 10.2749 11.0551 14.0724 8.1501 15.4294C7.81621 15.5857 7.45202 15.6668 7.08333 15.6668C6.71464 15.6668 6.35046 15.5857 6.01656 15.4294C3.11156 14.0717 1.25 10.2749 1.25 7.02207V7.02134Z" stroke="#08063C" stroke-width="1.09375"/>
<path d="M7.08398 9.10449C8.29211 9.10449 9.27148 8.12512 9.27148 6.91699C9.27148 5.70887 8.29211 4.72949 7.08398 4.72949C5.87586 4.72949 4.89648 5.70887 4.89648 6.91699C4.89648 8.12512 5.87586 9.10449 7.08398 9.10449Z" stroke="#08063C" stroke-width="1.09375"/>
</svg>
