<svg width="21" height="21" viewBox="0 0 21 21" fill="none" xmlns="http://www.w3.org/2000/svg">
<g clip-path="url(#clip0_1_909)">
<path d="M10.4466 0.25C8.4276 0.25 6.45392 0.848708 4.77517 1.97041C3.09642 3.09212 1.78799 4.68644 1.01535 6.55177C0.242704 8.4171 0.0405453 10.4697 0.434436 12.4499C0.828327 14.4301 1.80058 16.2491 3.22824 17.6767C4.6559 19.1044 6.47485 20.0766 8.45507 20.4705C10.4353 20.8644 12.4878 20.6622 14.3532 19.8896C16.2185 19.117 17.8128 17.8085 18.9345 16.1298C20.0562 14.451 20.655 12.4774 20.655 10.4583C20.655 7.75091 19.5794 5.15439 17.665 3.23995C15.7506 1.32552 13.154 0.25 10.4466 0.25Z" fill="white"/>
<path d="M14.2747 9.82031H6.61849C6.44928 9.82031 6.28699 9.88753 6.16734 10.0072C6.04769 10.1268 5.98047 10.2891 5.98047 10.4583C5.98047 10.6275 6.04769 10.7898 6.16734 10.9095C6.28699 11.0291 6.44928 11.0964 6.61849 11.0964H14.2747C14.444 11.0964 14.6062 11.0291 14.7259 10.9095C14.8455 10.7898 14.9128 10.6275 14.9128 10.4583C14.9128 10.2891 14.8455 10.1268 14.7259 10.0072C14.6062 9.88753 14.444 9.82031 14.2747 9.82031Z" fill="#888888"/>
</g>
<defs>
<clipPath id="clip0_1_909">
<rect width="20.4167" height="20.4167" fill="white" transform="translate(0.238281 0.25)"/>
</clipPath>
</defs>
</svg>
