<svg width="21" height="21" viewBox="0 0 21 21" fill="none" xmlns="http://www.w3.org/2000/svg">
<g clip-path="url(#clip0_1_915)">
<path d="M10.2806 20.6667C12.988 20.6667 15.5845 19.5911 17.499 17.6767C19.4134 15.7623 20.4889 13.1658 20.4889 10.4583C20.4889 7.75091 19.4134 5.15439 17.499 3.23995C15.5845 1.32552 12.988 0.25 10.2806 0.25C7.57318 0.25 4.97665 1.32552 3.06222 3.23995C1.14778 5.15439 0.0722656 7.75091 0.0722656 10.4583C0.0722656 13.1658 1.14778 15.7623 3.06222 17.6767C4.97665 19.5911 7.57318 20.6667 10.2806 20.6667Z" fill="white"/>
<path d="M10.2799 5.35425C10.4492 5.35425 10.6114 5.42147 10.7311 5.54112C10.8507 5.66077 10.918 5.82306 10.918 5.99227V9.82039H14.7461C14.9153 9.82039 15.0776 9.88761 15.1972 10.0073C15.3169 10.1269 15.3841 10.2892 15.3841 10.4584C15.3841 10.6276 15.3169 10.7899 15.1972 10.9096C15.0776 11.0292 14.9153 11.0964 14.7461 11.0964H10.918V14.9246C10.918 15.0938 10.8507 15.2561 10.7311 15.3757C10.6114 15.4954 10.4492 15.5626 10.2799 15.5626C10.1107 15.5626 9.94845 15.4954 9.8288 15.3757C9.70915 15.2561 9.64193 15.0938 9.64193 14.9246V11.0964H5.8138C5.64459 11.0964 5.48231 11.0292 5.36265 10.9096C5.243 10.7899 5.17578 10.6276 5.17578 10.4584C5.17578 10.2892 5.243 10.1269 5.36265 10.0073C5.48231 9.88761 5.64459 9.82039 5.8138 9.82039H9.64193V5.99227C9.64193 5.82306 9.70915 5.66077 9.8288 5.54112C9.94845 5.42147 10.1107 5.35425 10.2799 5.35425Z" fill="#888888"/>
</g>
<defs>
<clipPath id="clip0_1_915">
<rect width="20.4167" height="20.4167" fill="white" transform="translate(0.0722656 0.25)"/>
</clipPath>
</defs>
</svg>
