<svg width="19" height="19" viewBox="0 0 19 19" fill="none" xmlns="http://www.w3.org/2000/svg">
<g opacity="0.7">
<path opacity="0.5" d="M1.98633 16.9026V16.135H3.13764C3.67492 16.135 4.20581 16.0519 4.7303 15.8856C5.25479 15.7193 5.74729 15.4698 6.20782 15.1372C6.66835 15.4698 7.16085 15.7129 7.68534 15.8664C8.20983 16.0199 8.74071 16.0966 9.27799 16.0966C9.81528 16.0966 10.3462 16.0199 10.8706 15.8664C11.3951 15.7129 11.8876 15.4698 12.3482 15.1372C12.8087 15.4698 13.3012 15.7193 13.8257 15.8856C14.3502 16.0519 14.8811 16.135 15.4183 16.135H16.5697V16.9026H15.4183C14.8811 16.9026 14.3566 16.8386 13.8449 16.7107C13.3332 16.5827 12.8343 16.3909 12.3482 16.135C11.8621 16.3909 11.3598 16.5827 10.8415 16.7107C10.3231 16.8386 9.80197 16.9026 9.27799 16.9026C8.75351 16.9026 8.23209 16.8386 7.71374 16.7107C7.19539 16.5827 6.69342 16.3909 6.20782 16.135C5.72171 16.3909 5.2228 16.5827 4.71111 16.7107C4.19941 16.8386 3.67492 16.9026 3.13764 16.9026H1.98633Z" fill="#08063C" stroke="#08063C" stroke-width="0.5"/>
<path d="M3.6217 13.8032L2.36523 9.21939L3.83662 8.71281V4.15053H7.67434V1.8479H10.7445V4.15053H14.5822V8.71435L16.1127 9.25009L14.7979 13.8039C14.3353 13.6561 13.918 13.4391 13.546 13.1531C13.174 12.8675 12.7519 12.4546 12.2796 11.9142C11.837 12.4449 11.3754 12.8972 10.8949 13.2713C10.415 13.6453 9.85314 13.8323 9.20942 13.8323C8.56571 13.8323 8.00387 13.6451 7.5239 13.2705C7.04341 12.8964 6.58186 12.4441 6.13925 11.9135C5.67667 12.4538 5.25708 12.8668 4.88048 13.1523C4.50336 13.4388 4.08376 13.6558 3.6217 13.8032ZM4.60416 8.45031L9.20942 6.9536L13.8147 8.45031V4.91731H4.60416V8.45031ZM9.20942 13.0648C9.81067 13.0648 10.3142 12.8563 10.7199 12.4392C11.1262 12.0217 11.6461 11.4499 12.2796 10.7238C12.8834 11.4146 13.2966 11.8828 13.5192 12.1284C13.7418 12.375 14.0066 12.5879 14.3136 12.767L15.1579 9.72597L9.20942 7.76873L3.25175 9.72597L4.10526 12.7578C4.41637 12.5787 4.68219 12.374 4.90273 12.1437C5.12276 11.9135 5.53493 11.4402 6.13925 10.7238C6.77887 11.4529 7.30029 12.0255 7.7035 12.4415C8.10672 12.8576 8.60869 13.0653 9.20942 13.0648Z" fill="#08063C" stroke="#08063C" stroke-width="0.5"/>
</g>
</svg>
