<svg width="17" height="16" viewBox="0 0 17 16" fill="none" xmlns="http://www.w3.org/2000/svg">
<path d="M5.5 15.1876H11.3333" stroke="black" stroke-width="1.09375" stroke-linecap="round" stroke-linejoin="round"/>
<path opacity="0.5" d="M3.3125 13.0001H13.5208" stroke="black" stroke-width="1.09375" stroke-linecap="round" stroke-linejoin="round"/>
<path d="M1.125 10.8126H15.7083Z" fill="#D9D9D9"/>
<path d="M1.125 10.8126H15.7083" stroke="black" stroke-width="1.09375" stroke-linecap="round" stroke-linejoin="round"/>
<path opacity="0.5" d="M8.41626 3.5209C7.57425 3.52086 6.75011 3.76379 6.04276 4.22055C5.3354 4.6773 4.77488 5.32848 4.42845 6.09592C4.08203 6.86336 3.96442 7.71447 4.08975 8.5471C4.21508 9.37973 4.57802 10.1585 5.13501 10.79H11.6975C12.2545 10.1585 12.6174 9.37973 12.7428 8.5471C12.8681 7.71447 12.7505 6.86336 12.4041 6.09592C12.0576 5.32848 11.4971 4.6773 10.7898 4.22055C10.0824 3.76379 9.25827 3.52086 8.41626 3.5209Z" fill="#D9D9D9" stroke="black" stroke-width="1.09375"/>
<path opacity="0.5" d="M8.41667 0.604248V1.33341M15.7083 7.89591H14.9792M1.85417 7.89591H1.125M13.5719 2.74071L13.286 3.02727M3.54729 3.02654L3.26073 2.73998" stroke="black" stroke-width="1.09375" stroke-linecap="round"/>
</svg>
