<svg width="18" height="18" viewBox="0 0 18 18" fill="none" xmlns="http://www.w3.org/2000/svg">
<g clip-path="url(#clip0_2002_3509)">
<path d="M17.1354 5.56577V7.11221C17.1238 7.09094 17.1123 7.06963 17.1009 7.04828L16.7326 6.36087L16.4413 7.08431C16.1278 7.86302 15.7049 8.59307 15.1854 9.25244C14.5016 10.1067 13.661 10.8225 12.7088 11.3615L12.7087 11.3614L12.7037 11.3644L12.4854 11.4926L12.4844 11.4931L12.3601 11.5657L12.3586 11.5666C11.5386 12.0501 10.6844 12.5822 9.74717 13.1977L9.74715 13.1977L9.74286 13.2006C9.39254 13.4378 9.05526 13.6937 8.73247 13.9672C8.40793 13.6948 8.06979 13.4391 7.71936 13.2009L7.71938 13.2009L7.71506 13.198C6.78099 12.5823 5.9264 12.05 5.10257 11.5662L5.10166 11.5657L4.97787 11.4935L4.76369 11.3657L4.76375 11.3656L4.75613 11.3613C3.80329 10.8233 2.96261 10.1073 2.27974 9.25233C1.76766 8.60496 1.34809 7.88952 1.03309 7.12658L0.737696 6.41111L0.374216 7.09451C0.371011 7.10053 0.3678 7.10656 0.364583 7.11258V5.57662L1.25649 6.4624L0.681767 6.28878L1.07496 7.05313C1.27866 7.44912 1.5263 7.82091 1.81318 8.16148C2.55988 9.09928 3.57792 9.78376 4.72828 10.1214L4.73835 10.1243L4.74858 10.1267C4.94652 10.1726 5.14705 10.2064 5.34909 10.228L5.35077 10.2282C6.38678 10.3341 7.2386 10.0355 7.63418 9.21254L7.63421 9.21255L7.63617 9.20834C8.06386 8.28876 8.29136 7.28883 8.3036 6.27474L8.30363 6.27474V6.27034V5.05738L8.72661 4.06922L9.12677 4.99861V6.05804V6.05869V6.05935V6.06V6.06065V6.06129V6.06194V6.06259V6.06323V6.06388V6.06452V6.06517V6.06581V6.06645V6.06709V6.06773V6.06837V6.06901V6.06965V6.07028V6.07092V6.07155V6.07219V6.07282V6.07345V6.07408V6.07471V6.07534V6.07597V6.0766V6.07722V6.07785V6.07848V6.0791V6.07972V6.08035V6.08097V6.08159V6.08221V6.08283V6.08344V6.08406V6.08468V6.08529V6.08591V6.08652V6.08714V6.08775V6.08836V6.08897V6.08958V6.09019V6.09079V6.0914V6.09201V6.09261V6.09322V6.09382V6.09442V6.09502V6.09562V6.09622V6.09682V6.09742V6.09802V6.09861V6.09921V6.0998V6.1004V6.10099V6.10158V6.10217V6.10276V6.10335V6.10394V6.10453V6.10512V6.1057V6.10629V6.10687V6.10746V6.10804V6.10862V6.1092V6.10978V6.11036V6.11094V6.11152V6.11209V6.11267V6.11324V6.11382V6.11439V6.11496V6.11553V6.1161V6.11667V6.11724V6.11781V6.11838V6.11894V6.11951V6.12007V6.12064V6.1212V6.12176V6.12232V6.12288V6.12344V6.124V6.12456V6.12511V6.12567V6.12622V6.12678V6.12733V6.12788V6.12844V6.12899V6.12954V6.13008V6.13063V6.13118V6.13173V6.13227V6.13282V6.13336V6.1339V6.13445V6.13499V6.13553V6.13607V6.13661V6.13714V6.13768V6.13822V6.13875V6.13929V6.13982V6.14035V6.14088V6.14142V6.14195V6.14247V6.143V6.14353V6.14406V6.14458V6.14511V6.14563V6.14616V6.14668V6.1472V6.14772V6.14824V6.14876V6.14928V6.14979V6.15031V6.15083V6.15134V6.15186V6.15237V6.15288V6.15339V6.1539V6.15441V6.15492V6.15543V6.15594V6.15644V6.15695V6.15745V6.15796V6.15846V6.15896V6.15946V6.15996V6.16046V6.16096V6.16146V6.16196V6.16245V6.16295V6.16344V6.16393V6.16443V6.16492V6.16541V6.1659V6.16639V6.16688V6.16737V6.16785V6.16834V6.16882V6.16931V6.16979V6.17027V6.17076V6.17124V6.17172V6.1722V6.17267V6.17315V6.17363V6.1741V6.17458V6.17505V6.17553V6.176V6.17647V6.17694V6.17741V6.17788V6.17835V6.17881V6.17928V6.17975V6.18021V6.18068V6.18114V6.1816V6.18206V6.18252V6.18298V6.18344V6.1839V6.18436V6.18481V6.18527V6.18572V6.18618V6.18663V6.18708V6.18753V6.18798V6.18843V6.18888V6.18933V6.18978V6.19023V6.19067V6.19112V6.19156V6.192V6.19244V6.19289V6.19333V6.19377V6.1942V6.19464V6.19508V6.19552V6.19595V6.19639V6.19682V6.19725V6.19768V6.19812V6.19855V6.19898V6.1994V6.19983V6.20026V6.20069V6.20111V6.20154V6.20196V6.20238V6.2028V6.20323V6.20365V6.20407V6.20448V6.2049V6.20532V6.20574V6.20615V6.20657V6.20698V6.20739V6.2078V6.20821V6.20863V6.20904V6.20944V6.20985V6.21026V6.21066V6.21107V6.21147V6.21188V6.21228V6.21268V6.21308V6.21349V6.21389V6.21428V6.21468V6.21508V6.21548V6.21587V6.21627V6.21666V6.21705V6.21744V6.21784V6.21823V6.21862V6.219V6.21939V6.21978V6.22017V6.22055V6.22094V6.22132V6.2217V6.22208V6.22247V6.22285V6.22323V6.22361V6.22398V6.22436V6.22474V6.22511V6.22549V6.22586V6.22623V6.22661V6.22698V6.22735V6.22772V6.22809V6.22846V6.22882V6.22919V6.22956V6.22992V6.23028V6.23065V6.23101V6.23137V6.23173V6.23209V6.23245V6.23281V6.23317V6.23352V6.23388V6.23423V6.23459V6.23494V6.23529V6.23565V6.236V6.23635V6.2367V6.23704V6.23739V6.23774V6.23809V6.23843V6.23877V6.23912V6.23946V6.2398V6.24014V6.24048V6.24082V6.24116V6.2415V6.24184V6.24217V6.24251V6.24284V6.24318V6.24351V6.24384V6.24417V6.2445V6.24483V6.24516V6.24549V6.24582V6.24614V6.24647V6.24679V6.24712V6.24744V6.24776V6.24808V6.2484V6.24872V6.24904V6.24936V6.24968V6.24999V6.25031V6.25063V6.25094V6.25125V6.25157V6.25188V6.25219V6.2525V6.25281V6.25312V6.25342V6.25373V6.25404V6.25434V6.25465V6.25495V6.25525V6.25555V6.25585V6.25616V6.25645V6.25675V6.25705V6.25735V6.25764V6.25794V6.25823V6.25853V6.25882V6.25911V6.2594V6.2597V6.25999V6.26027V6.26056V6.26085V6.26114V6.26142V6.26171V6.26199V6.26227V6.26256V6.26284V6.26312V6.2634V6.26368V6.26396V6.26423V6.26451V6.26479V6.26506V6.26534V6.26561V6.26588V6.26616V6.26643V6.2667V6.26697V6.26724V6.2675V6.26777V6.26804V6.2683V6.26857V6.26883V6.26909V6.26936V6.26962V6.26988V6.27014V6.2704V6.27066V6.27091V6.27117V6.27143V6.27168V6.27194V6.27219V6.27244V6.27269V6.27294V6.27319V6.27344V6.27369V6.27394V6.27419V6.27443V6.27468V6.27492V6.27517V6.27541V6.27565V6.2759V6.27614V6.27638V6.27661V6.27685V6.27709V6.27733V6.27756V6.2778V6.27803V6.27827V6.2785V6.27873V6.27896V6.27919V6.27942V6.27965V6.27988V6.28011V6.28033V6.28056V6.28078H9.12673L9.12681 6.28623C9.14179 7.2888 9.36941 8.27677 9.79462 9.18484L9.79461 9.18485L9.79621 9.18818C10.1918 10.0112 11.0472 10.3096 12.0795 10.2039L17.1354 5.56577ZM17.1354 5.56577L16.2241 6.45486M17.1354 5.56577L16.2241 6.45486M16.2241 6.45486L16.748 6.30213L16.3587 7.05695C16.1546 7.45282 15.9068 7.82466 15.6202 8.16557C14.8713 9.09588 13.8514 9.77007 12.702 10.0946L12.6907 10.0978L12.6906 10.0976C12.4897 10.1474 12.2855 10.1829 12.0796 10.2038L16.2241 6.45486Z" stroke="#469979" stroke-width="0.729167"/>
</g>
<defs>
<clipPath id="clip0_2002_3509">
<rect width="17.5" height="17.5" fill="white" transform="translate(0 0.041748)"/>
</clipPath>
</defs>
</svg>
