<svg width="18" height="18" viewBox="0 0 18 18" fill="none" xmlns="http://www.w3.org/2000/svg">
<g clip-path="url(#clip0_2002_3526)">
<path opacity="0.5" d="M2.18945 7.33358C2.18945 4.58389 2.18945 3.20868 3.04404 2.35483C3.89789 1.50024 5.2731 1.50024 8.02279 1.50024H9.48112C12.2308 1.50024 13.606 1.50024 14.4599 2.35483C15.3145 3.20868 15.3145 4.58389 15.3145 7.33358V10.2502C15.3145 12.9999 15.3145 14.3751 14.4599 15.229C13.606 16.0836 12.2308 16.0836 9.48112 16.0836H8.02279C5.2731 16.0836 3.89789 16.0836 3.04404 15.229C2.18945 14.3751 2.18945 12.9999 2.18945 10.2502V7.33358Z" stroke="#469979" stroke-width="1.09375"/>
<path d="M5.83594 8.79191H11.6693M5.83594 5.87524H11.6693M5.83594 11.7086H9.48177" stroke="#469979" stroke-width="1.09375" stroke-linecap="round"/>
</g>
<defs>
<clipPath id="clip0_2002_3526">
<rect width="17.5" height="17.5" fill="white" transform="translate(0 0.041748)"/>
</clipPath>
</defs>
</svg>
