<svg width="18" height="18" viewBox="0 0 18 18" fill="none" xmlns="http://www.w3.org/2000/svg">
<path opacity="0.5" d="M1.82227 4.78141C1.82227 3.4062 1.82227 2.71933 2.24956 2.29204C2.67685 1.86475 3.36372 1.86475 4.73893 1.86475C6.11414 1.86475 6.80102 1.86475 7.22831 2.29204C7.6556 2.71933 7.6556 3.4062 7.6556 4.78141C7.6556 6.15662 7.6556 6.8435 7.22831 7.27079C6.80102 7.69808 6.11414 7.69808 4.73893 7.69808C3.36372 7.69808 2.67685 7.69808 2.24956 7.27079C1.82227 6.8435 1.82227 6.15662 1.82227 4.78141ZM9.8431 12.8022C9.8431 11.427 9.8431 10.7402 10.2704 10.3129C10.6977 9.88558 11.3846 9.88558 12.7598 9.88558C14.135 9.88558 14.8218 9.88558 15.2491 10.3129C15.6764 10.7402 15.6764 11.427 15.6764 12.8022C15.6764 14.1775 15.6764 14.8643 15.2491 15.2916C14.8218 15.7189 14.135 15.7189 12.7598 15.7189C11.3846 15.7189 10.6977 15.7189 10.2704 15.2916C9.8431 14.8643 9.8431 14.1775 9.8431 12.8022Z" stroke="#469979" stroke-width="1.09375"/>
<path d="M1.82227 12.8022C1.82227 11.427 1.82227 10.7402 2.24956 10.3129C2.67685 9.88558 3.36372 9.88558 4.73893 9.88558C6.11414 9.88558 6.80102 9.88558 7.22831 10.3129C7.6556 10.7402 7.6556 11.427 7.6556 12.8022C7.6556 14.1775 7.6556 14.8643 7.22831 15.2916C6.80102 15.7189 6.11414 15.7189 4.73893 15.7189C3.36372 15.7189 2.67685 15.7189 2.24956 15.2916C1.82227 14.8643 1.82227 14.1775 1.82227 12.8022ZM9.8431 4.78141C9.8431 3.4062 9.8431 2.71933 10.2704 2.29204C10.6977 1.86475 11.3846 1.86475 12.7598 1.86475C14.135 1.86475 14.8218 1.86475 15.2491 2.29204C15.6764 2.71933 15.6764 3.4062 15.6764 4.78141C15.6764 6.15662 15.6764 6.8435 15.2491 7.27079C14.8218 7.69808 14.135 7.69808 12.7598 7.69808C11.3846 7.69808 10.6977 7.69808 10.2704 7.27079C9.8431 6.8435 9.8431 6.15662 9.8431 4.78141Z" stroke="#469979" stroke-width="1.09375"/>
</svg>
