<svg width="18" height="18" viewBox="0 0 18 18" fill="none" xmlns="http://www.w3.org/2000/svg">
<g clip-path="url(#clip0_2002_3516)">
<path opacity="0.5" d="M8.75065 16.0836C12.7777 16.0836 16.0423 12.819 16.0423 8.79191C16.0423 4.76483 12.7777 1.50024 8.75065 1.50024C4.72357 1.50024 1.45898 4.76483 1.45898 8.79191C1.45898 12.819 4.72357 16.0836 8.75065 16.0836Z" stroke="#469979" stroke-width="1.09375"/>
<path d="M7.38281 6.51325C7.38284 6.27382 7.44575 6.03859 7.56524 5.83111C7.68473 5.62363 7.85662 5.45117 8.06369 5.33098C8.27077 5.21079 8.50578 5.14709 8.74521 5.14625C8.98463 5.14541 9.22008 5.20746 9.428 5.3262C9.63591 5.44493 9.809 5.61618 9.92994 5.82282C10.0509 6.02946 10.1154 6.26424 10.1172 6.50366C10.1189 6.74308 10.0577 6.97876 9.93969 7.1871C9.82171 7.39545 9.65109 7.56916 9.4449 7.69085C9.09854 7.89574 8.75 8.2071 8.75 8.6096V9.52106" stroke="#469979" stroke-width="1.09375" stroke-linecap="round"/>
<path d="M8.75065 12.4378C9.15336 12.4378 9.47982 12.1114 9.47982 11.7087C9.47982 11.306 9.15336 10.9795 8.75065 10.9795C8.34794 10.9795 8.02148 11.306 8.02148 11.7087C8.02148 12.1114 8.34794 12.4378 8.75065 12.4378Z" fill="#469979"/>
</g>
<defs>
<clipPath id="clip0_2002_3516">
<rect width="17.5" height="17.5" fill="white" transform="translate(0 0.041748)"/>
</clipPath>
</defs>
</svg>
