<svg width="186" height="45" viewBox="0 0 186 45" fill="none" xmlns="http://www.w3.org/2000/svg">
<g clip-path="url(#clip0_1_210)">
<path d="M12.6258 30.1565L21.841 8.10752V8.16843L31.0997 30.0695C32.7791 29.5475 35.9988 26.6847 35.9988 26.6847L25.0955 0.833252H18.63L7.74414 26.7543C9.03859 28.3037 10.7241 29.4784 12.6258 30.1565Z" fill="#08063C"/>
<path d="M34.7031 38.4401L37.3135 44.5832H43.7699L39.367 34.3679C37.9894 35.9157 36.4225 37.2838 34.7031 38.4401Z" fill="#08063C"/>
<path d="M4.35064 34.4375L0 44.5832H6.43024L9.04062 38.4923C7.31288 37.3435 5.73709 35.9811 4.35064 34.4375Z" fill="#08063C"/>
<path d="M37.3659 26.4933L40.1418 25.6841C39.6609 26.6165 39.0771 27.492 38.4014 28.2945C36.6473 30.4769 34.2566 32.0584 31.5618 32.8191C31.1012 32.9333 30.633 33.0147 30.1608 33.0628C27.7853 33.3064 26.1232 32.6103 25.3662 31.0354C24.3578 28.8819 23.818 26.539 23.7824 24.1614C23.7824 24.0657 23.7824 23.8829 23.7824 23.6045V20.7679L21.8681 16.3215L19.9015 20.9158V24.1353C19.8724 26.5416 19.3326 28.9143 18.3177 31.0963C17.5607 32.6712 15.9073 33.3673 13.5231 33.1237C13.0546 33.0736 12.5897 32.9952 12.1308 32.8888C9.4308 32.0964 7.04185 30.4886 5.2912 28.2858C4.61457 27.484 4.03075 26.6083 3.55084 25.6754L6.43113 26.5455L0.0527344 20.211V29.4605C0.690464 28.5515 1.27168 27.6042 1.79309 26.6238C2.61315 28.6101 3.70554 30.4726 5.03884 32.1579C6.81918 34.3873 9.01111 36.2542 11.4956 37.6571L12.0351 37.979L12.3483 38.1617C14.3932 39.3625 16.5165 40.6851 18.8398 42.2165C19.7136 42.8104 20.556 43.4494 21.3634 44.1308L21.8855 44.5572L22.4076 44.1308C23.2099 43.4468 24.0494 42.8077 24.9224 42.2165C27.2544 40.6851 29.3777 39.3625 31.4139 38.1617L31.7271 37.979L32.2754 37.6571C34.7582 36.2519 36.9497 34.3854 38.7321 32.1579C40.0856 30.4406 41.1873 28.5391 42.0039 26.5107C42.5462 27.5227 43.1476 28.5019 43.8052 29.4431V20.211L37.3659 26.4933Z" fill="url(#paint0_linear_1_210)"/>
<path d="M90.2544 25.6057L87.1218 21.1158C86.9276 21.1288 86.7329 21.1288 86.5387 21.1158H80.9261V25.5796H78.0371V10.2827H86.5387C90.5676 10.2827 93.0651 12.3362 93.0651 15.7297C93.1119 16.7794 92.82 17.8164 92.2325 18.6875C91.6449 19.5587 90.7928 20.2178 89.8019 20.5676L93.2826 25.6057H90.2544ZM86.3995 12.6843H80.9261V18.7752H86.443C88.9404 18.7752 90.237 17.6353 90.237 15.7036C90.237 13.7719 88.8969 12.6843 86.3995 12.6843Z" fill="#08063C"/>
<path d="M103.735 19.1928L99.9842 23.0649V25.6057H97.1387V10.2827H99.9842V19.5235L108.877 10.2827H112.08L105.64 17.1306L112.471 25.6057H109.147L103.735 19.1928Z" fill="#08063C"/>
<path d="M139.229 10.2827H142.074V23.2476H150.775V25.6579H139.229V10.2827Z" fill="#08063C"/>
<path d="M154.543 10.2827H157.388V23.2476H166.09V25.6579H154.543V10.2827Z" fill="#08063C"/>
<path d="M178.909 20.2022V25.6666H175.976V20.2457L169.885 10.2827H173.026L177.516 17.7484L182.311 10.2827H185.191L178.909 20.2022Z" fill="#08063C"/>
<path d="M68.961 22.0644H60.1548L58.4145 25.6058H55.0469L62.9742 10.3003H66.1938L74.1472 25.6058H70.7275L68.961 22.0644ZM67.8733 19.8282L64.5492 13.1369L61.2599 19.8282H67.8733Z" fill="#08063C"/>
<path d="M130.213 22.0644H121.398L119.658 25.6058H116.281L124.209 10.3003H127.437L135.39 25.6058H131.962L130.213 22.0644ZM129.125 19.8282L125.81 13.1369L122.512 19.8282H129.125Z" fill="#08063C"/>
<path d="M59.754 35.2466V31.1396L57.7179 34.5592H57.3437L55.3076 31.157V35.2466H54.5332V29.6082H55.1945L57.5438 33.5672L59.8671 29.6082H60.5284V35.2466H59.754Z" fill="#52BAAB"/>
<path d="M65.342 31.366C65.5072 31.5368 65.6344 31.7406 65.7154 31.9641C65.7963 32.1875 65.8292 32.4255 65.8119 32.6625V35.2729H65.081V34.6812C64.9458 34.8852 64.7515 35.0431 64.5241 35.1336C64.2485 35.2473 63.9518 35.3007 63.6539 35.2903C63.2419 35.3141 62.8348 35.1907 62.5054 34.9422C62.3713 34.84 62.2623 34.7084 62.1869 34.5576C62.1115 34.4068 62.0716 34.2407 62.0703 34.0721C62.0704 33.9059 62.1071 33.7418 62.1777 33.5914C62.2484 33.441 62.3514 33.308 62.4793 33.202C62.8609 32.9382 63.3222 32.8151 63.7845 32.8539H65.0113V32.706C65.0207 32.5653 64.9999 32.4242 64.9504 32.2922C64.9008 32.1601 64.8237 32.0402 64.7242 31.9403C64.4804 31.7404 64.1682 31.6436 63.8541 31.6705C63.599 31.6707 63.3458 31.7149 63.1058 31.801C62.8838 31.8722 62.6772 31.9843 62.4967 32.1317L62.1747 31.5487C62.4097 31.3643 62.6788 31.2283 62.9665 31.1485C63.2819 31.0494 63.6106 30.9995 63.9411 31.0005C64.4377 30.937 64.9397 31.068 65.342 31.366ZM64.5676 34.4984C64.7813 34.3697 64.9465 34.1739 65.0374 33.9416V33.3412H63.8454C63.1928 33.3412 62.8621 33.5674 62.8621 34.0025C62.8588 34.1009 62.8802 34.1987 62.9243 34.2868C62.9683 34.375 63.0337 34.4507 63.1145 34.5071C63.3153 34.6471 63.5577 34.7146 63.8019 34.6986C64.0708 34.7049 64.3361 34.6356 64.5676 34.4984Z" fill="#52BAAB"/>
<path d="M69.2218 33.2542L68.3517 34.0721V35.2468H67.5859V29.269H68.3517V33.0976L70.6836 30.9745H71.6146L69.8222 32.7147L71.7974 35.2207H70.8402L69.2218 33.2542Z" fill="#52BAAB"/>
<path d="M72.8084 30.0085C72.7594 29.9633 72.7209 29.9079 72.6953 29.8463C72.6698 29.7848 72.6579 29.7184 72.6605 29.6517C72.6585 29.5852 72.6706 29.519 72.6961 29.4575C72.7216 29.396 72.7599 29.3406 72.8084 29.295C72.8573 29.246 72.9158 29.2076 72.9801 29.1821C73.0445 29.1567 73.1134 29.1448 73.1826 29.1471C73.3208 29.1421 73.4554 29.1921 73.5567 29.2863C73.6042 29.3309 73.6418 29.3849 73.6673 29.4448C73.6927 29.5047 73.7055 29.5692 73.7047 29.6343C73.7071 29.7036 73.6952 29.7725 73.6699 29.837C73.6445 29.9014 73.6061 29.9599 73.5572 30.0089C73.5082 30.0579 73.4497 30.0963 73.3852 30.1216C73.3208 30.147 73.2518 30.1588 73.1826 30.1564C73.1134 30.1587 73.0445 30.1468 72.9801 30.1214C72.9158 30.0959 72.8573 30.0575 72.8084 30.0085ZM72.8084 30.9743H73.5828V35.2467H72.8084V30.9743Z" fill="#52BAAB"/>
<path d="M78.9328 31.4095C79.102 31.594 79.2318 31.8111 79.3141 32.0475C79.3964 32.2839 79.4295 32.5347 79.4113 32.7843V35.2468H78.6369V32.8801C78.6567 32.5367 78.5411 32.1994 78.315 31.9403C78.2002 31.8298 78.0633 31.7447 77.9134 31.6907C77.7634 31.6367 77.6038 31.615 77.4448 31.6271C77.2634 31.6175 77.0818 31.645 76.9113 31.7078C76.7408 31.7707 76.5848 31.8675 76.4529 31.9925C76.2144 32.2823 76.0988 32.654 76.1309 33.028V35.2294H75.3652V30.9745H76.1048V31.6184C76.2637 31.3961 76.4804 31.2216 76.7313 31.1137C77.0059 30.994 77.302 30.9318 77.6015 30.931C77.8445 30.9131 78.0886 30.9464 78.3179 31.0289C78.5473 31.1113 78.7567 31.241 78.9328 31.4095Z" fill="#52BAAB"/>
<path d="M85.2775 30.9744V34.6638C85.3032 34.9628 85.2671 35.264 85.1713 35.5484C85.0755 35.8329 84.9221 36.0945 84.7206 36.317C84.2593 36.7088 83.6621 36.9026 83.0587 36.8565C82.67 36.8552 82.2834 36.7996 81.9101 36.6912C81.5904 36.5971 81.294 36.437 81.04 36.2213L81.4141 35.6209C81.6324 35.803 81.8834 35.9418 82.1537 36.0299C82.4344 36.1239 82.7279 36.1738 83.0239 36.1778C83.4248 36.2086 83.8217 36.0804 84.1289 35.8211C84.3881 35.5335 84.5227 35.1549 84.5031 34.7682V34.4289C84.3266 34.6496 84.0957 34.8205 83.8331 34.9248C83.5572 35.0381 83.2612 35.0943 82.9629 35.0902C82.5787 35.0959 82.199 35.0062 81.8579 34.8291C81.5355 34.664 81.2669 34.4105 81.0835 34.0982C80.8957 33.7712 80.7969 33.4007 80.7969 33.0236C80.7969 32.6465 80.8957 32.276 81.0835 31.949C81.2669 31.6367 81.5355 31.3832 81.8579 31.2181C82.199 31.041 82.5787 30.9513 82.9629 30.957C83.2623 30.9593 83.5581 31.0215 83.8331 31.1398C84.101 31.2515 84.335 31.4315 84.5118 31.6618V31.0006L85.2775 30.9744ZM83.807 34.2113C84.0276 34.1033 84.2099 33.9302 84.3291 33.7154C84.4887 33.4416 84.5539 33.1229 84.5146 32.8084C84.4753 32.4939 84.3337 32.2011 84.1115 31.9751C83.8229 31.7168 83.4458 31.5796 83.0587 31.5922C82.666 31.5778 82.2828 31.7149 81.9884 31.9751C81.7663 32.2011 81.6246 32.4939 81.5853 32.8084C81.546 33.1229 81.6112 33.4416 81.7709 33.7154C81.8901 33.9302 82.0723 34.1033 82.293 34.2113C82.5287 34.3357 82.7921 34.3986 83.0587 34.394C83.3195 34.3975 83.577 34.3346 83.807 34.2113Z" fill="#52BAAB"/>
<path d="M91.8294 33.2975V35.2466H91.0375V33.2801L88.7578 29.6082H89.6279L91.4378 32.5753L93.2477 29.6082H94.0482L91.8294 33.2975Z" fill="#52BAAB"/>
<path d="M95.2923 35.0118C94.9618 34.8279 94.6879 34.5571 94.5004 34.2286C94.305 33.8873 94.2058 33.4994 94.2133 33.1062C94.2071 32.7131 94.3062 32.3255 94.5004 31.9837C94.6885 31.6579 94.9624 31.39 95.2923 31.2093C95.6457 31.0216 96.0407 30.9258 96.4408 30.9309C96.8382 30.9258 97.2304 31.0216 97.5807 31.2093C97.9082 31.3902 98.1792 31.6583 98.3638 31.9837C98.558 32.3255 98.6572 32.7131 98.6509 33.1062C98.6585 33.4994 98.5592 33.8873 98.3638 34.2286C98.1794 34.5565 97.9085 34.8274 97.5807 35.0118C97.2304 35.1995 96.8382 35.2953 96.4408 35.2902C96.0407 35.2952 95.6457 35.1995 95.2923 35.0118ZM97.1717 34.4288C97.3883 34.3023 97.5659 34.1187 97.6851 33.898C97.8126 33.6536 97.8783 33.3818 97.8765 33.1062C97.8794 32.8332 97.8136 32.5639 97.6851 32.3231C97.5681 32.103 97.3898 31.9217 97.1717 31.801C96.9509 31.6697 96.6976 31.6034 96.4408 31.6096C96.1813 31.6036 95.9253 31.6699 95.7012 31.801C95.4832 31.9217 95.3048 32.103 95.1878 32.3231C95.0556 32.5625 94.9896 32.8328 94.9964 33.1062C94.9905 33.3822 95.0564 33.6551 95.1878 33.898C95.307 34.1187 95.4846 34.3023 95.7012 34.4288C95.9276 34.5532 96.1826 34.6162 96.4408 34.6115C96.6963 34.6163 96.9485 34.5533 97.1717 34.4288Z" fill="#52BAAB"/>
<path d="M104.03 30.9744V35.2467H103.29V34.6028C103.138 34.8244 102.927 34.9992 102.681 35.1075C102.409 35.2346 102.111 35.2971 101.811 35.2902C101.561 35.3169 101.308 35.2869 101.072 35.2023C100.835 35.1178 100.62 34.9809 100.444 34.802C100.267 34.623 100.134 34.4065 100.052 34.1686C99.9713 33.9308 99.9448 33.6776 99.975 33.4281V30.9744H100.749V33.3411C100.722 33.6809 100.829 34.0178 101.045 34.2808C101.159 34.3934 101.295 34.4804 101.446 34.5359C101.596 34.5915 101.756 34.6143 101.915 34.6028C102.094 34.6107 102.271 34.5815 102.438 34.5171C102.604 34.4527 102.755 34.3545 102.881 34.2286C103.134 33.9415 103.262 33.566 103.238 33.1845V30.9744H104.03Z" fill="#52BAAB"/>
<path d="M107.162 31.131C107.461 30.991 107.789 30.9225 108.119 30.9309V31.6879H107.902C107.721 31.6775 107.539 31.7055 107.37 31.77C107.201 31.8344 107.047 31.934 106.918 32.062C106.665 32.3554 106.537 32.7366 106.562 33.1236V35.2554H105.787V30.9744H106.527V31.6879C106.672 31.4382 106.895 31.2427 107.162 31.131Z" fill="#52BAAB"/>
<path d="M113.166 30.3043H111.234V29.6082H115.898V30.3043H113.993V35.2466H113.192L113.166 30.3043Z" fill="#52BAAB"/>
<path d="M116.89 30.0085C116.843 29.9619 116.805 29.9064 116.78 29.8451C116.755 29.7838 116.742 29.7181 116.742 29.6517C116.742 29.5179 116.795 29.3896 116.89 29.295C116.991 29.1985 117.125 29.1454 117.264 29.1471C117.333 29.1431 117.402 29.1534 117.466 29.1774C117.53 29.2013 117.589 29.2384 117.638 29.2863C117.687 29.3298 117.726 29.3836 117.751 29.4438C117.777 29.5039 117.789 29.569 117.786 29.6343C117.789 29.7036 117.778 29.7727 117.752 29.8371C117.727 29.9015 117.688 29.9599 117.638 30.0085C117.59 30.0575 117.531 30.0959 117.467 30.1214C117.402 30.1468 117.333 30.1587 117.264 30.1564C117.125 30.1581 116.991 30.105 116.89 30.0085ZM116.89 30.9743H117.665V35.2467H116.89V30.9743Z" fill="#52BAAB"/>
<path d="M126.062 31.4009C126.232 31.5866 126.362 31.8052 126.445 32.0431C126.527 32.281 126.56 32.5333 126.541 32.7844V35.2468H125.766V32.8801C125.792 32.5419 125.69 32.2063 125.479 31.9403C125.373 31.8325 125.245 31.7487 125.104 31.6946C124.963 31.6406 124.812 31.6175 124.661 31.6271C124.489 31.6181 124.317 31.646 124.156 31.7091C123.996 31.7721 123.85 31.8688 123.73 31.9926C123.48 32.2842 123.355 32.6624 123.382 33.0454V35.2468H122.608V32.8801C122.634 32.5419 122.531 32.2063 122.321 31.9403C122.215 31.8325 122.087 31.7487 121.946 31.6946C121.805 31.6406 121.654 31.6175 121.503 31.6271C121.33 31.6181 121.158 31.646 120.998 31.7091C120.837 31.7721 120.692 31.8688 120.572 31.9926C120.322 32.2842 120.197 32.6624 120.224 33.0454V35.2468H119.449V30.9745H120.189V31.6097C120.349 31.392 120.561 31.2184 120.807 31.105C121.081 30.9854 121.378 30.926 121.677 30.931C121.98 30.9263 122.279 30.9981 122.547 31.1398C122.802 31.2675 123.012 31.4712 123.147 31.7228C123.313 31.4727 123.545 31.2738 123.817 31.1485C124.12 30.9983 124.454 30.9236 124.792 30.931C125.024 30.9204 125.256 30.9566 125.475 31.0373C125.693 31.118 125.893 31.2416 126.062 31.4009Z" fill="#52BAAB"/>
<path d="M132.154 33.3672H128.673C128.694 33.5379 128.749 33.7027 128.834 33.8521C128.919 34.0015 129.033 34.1325 129.169 34.2374C129.466 34.47 129.836 34.5902 130.213 34.5767C130.444 34.5871 130.675 34.5465 130.888 34.4578C131.102 34.369 131.293 34.2344 131.449 34.0633L131.875 34.568C131.679 34.794 131.431 34.97 131.153 35.0814C130.848 35.1989 130.523 35.2579 130.196 35.2554C129.778 35.2667 129.365 35.1708 128.995 34.977C128.657 34.8019 128.376 34.5331 128.186 34.2026C127.991 33.8577 127.892 33.4673 127.899 33.0714C127.895 32.6824 127.991 32.2989 128.177 31.9576C128.352 31.6288 128.618 31.357 128.943 31.1745C129.279 30.9917 129.656 30.896 130.039 30.896C130.422 30.896 130.799 30.9917 131.136 31.1745C131.451 31.3629 131.71 31.6336 131.884 31.9576C132.066 32.3097 132.158 32.7012 132.154 33.0975C132.171 33.1932 132.162 33.2715 132.154 33.3672ZM129.126 31.9228C128.878 32.1491 128.723 32.4591 128.691 32.7929H131.397C131.368 32.4579 131.213 32.1465 130.962 31.9228C130.702 31.7015 130.372 31.58 130.031 31.58C129.689 31.58 129.359 31.7015 129.1 31.9228H129.126Z" fill="#52BAAB"/>
<path d="M141.386 35.2466V31.1396L139.35 34.5592H138.984L136.948 31.157V35.2466H136.174V29.6082H136.835L139.184 33.5672L141.499 29.6082H142.16V35.2466H141.386Z" fill="#52BAAB"/>
<path d="M147.929 33.3673H144.449C144.498 33.7096 144.675 34.0206 144.945 34.2374C145.246 34.4687 145.618 34.5886 145.997 34.5768C146.228 34.5871 146.459 34.5465 146.672 34.4578C146.886 34.3691 147.077 34.2344 147.233 34.0634L147.659 34.5681C147.461 34.7921 147.214 34.9677 146.937 35.0814C146.629 35.2 146.301 35.259 145.971 35.2555C145.554 35.2667 145.14 35.1709 144.77 34.977C144.432 34.802 144.151 34.5331 143.961 34.2026C143.767 33.8578 143.668 33.4673 143.674 33.0714C143.67 32.6825 143.766 32.299 143.953 31.9577C144.133 31.6326 144.397 31.3621 144.718 31.1746C145.057 30.9882 145.437 30.8923 145.823 30.8961C146.204 30.8922 146.579 30.9882 146.911 31.1746C147.229 31.3604 147.488 31.6317 147.659 31.9577C147.845 32.3084 147.938 32.7008 147.929 33.0975C147.929 33.1933 147.929 33.2716 147.929 33.3673ZM144.91 31.9229C144.66 32.1483 144.502 32.4582 144.466 32.793H147.207C147.171 32.4582 147.013 32.1483 146.763 31.9229C146.506 31.7006 146.177 31.5783 145.836 31.5783C145.496 31.5783 145.167 31.7006 144.91 31.9229Z" fill="#52BAAB"/>
<path d="M155.936 31.4007C156.103 31.5883 156.23 31.8073 156.311 32.0449C156.392 32.2826 156.424 32.5339 156.406 32.7842V35.2467H155.632V32.8799C155.657 32.5417 155.555 32.2062 155.344 31.9402C155.239 31.8323 155.111 31.7485 154.97 31.6945C154.828 31.6404 154.677 31.6174 154.527 31.627C154.354 31.6179 154.182 31.6459 154.021 31.7089C153.861 31.772 153.716 31.8686 153.595 31.9924C153.346 32.284 153.221 32.6622 153.247 33.0453V35.2467H152.473V32.8799C152.499 32.5417 152.396 32.2062 152.186 31.9402C152.08 31.8323 151.952 31.7485 151.811 31.6945C151.67 31.6404 151.519 31.6174 151.368 31.627C151.196 31.6179 151.023 31.6459 150.863 31.7089C150.702 31.772 150.557 31.8686 150.437 31.9924C150.187 32.284 150.062 32.6622 150.089 33.0453V35.2467H149.314V30.9744H150.054V31.6095C150.214 31.3919 150.427 31.2183 150.672 31.1049C150.946 30.9852 151.243 30.9259 151.542 30.9309C151.845 30.9283 152.143 31 152.412 31.1397C152.663 31.2706 152.869 31.4736 153.004 31.7227C153.171 31.4744 153.403 31.2759 153.674 31.1484C153.976 30.9981 154.311 30.9235 154.648 30.9309C154.884 30.9179 155.119 30.9529 155.34 31.0336C155.562 31.1144 155.764 31.2393 155.936 31.4007Z" fill="#52BAAB"/>
<path d="M158.859 35.0118C158.528 34.828 158.254 34.5572 158.067 34.2287C157.871 33.8874 157.772 33.4995 157.78 33.1063C157.773 32.7132 157.873 32.3256 158.067 31.9838C158.255 31.658 158.529 31.3901 158.859 31.2094C159.209 31.0227 159.601 30.927 159.999 30.931C160.396 30.9247 160.789 31.0206 161.138 31.2094C161.468 31.3901 161.742 31.658 161.93 31.9838C162.124 32.3256 162.224 32.7132 162.217 33.1063C162.225 33.4995 162.126 33.8874 161.93 34.2287C161.743 34.5572 161.469 34.828 161.138 35.0118C160.789 35.2007 160.396 35.2965 159.999 35.2903C159.601 35.2943 159.209 35.1985 158.859 35.0118ZM160.738 34.4289C160.955 34.3024 161.132 34.1188 161.251 33.8981C161.376 33.653 161.439 33.3811 161.434 33.1063C161.44 32.8341 161.377 32.5648 161.251 32.3232C161.134 32.1031 160.956 31.9218 160.738 31.8011C160.513 31.6753 160.26 31.6093 160.003 31.6093C159.745 31.6093 159.492 31.6753 159.268 31.8011C159.049 31.9239 158.868 32.1045 158.746 32.3232C158.62 32.5648 158.557 32.8341 158.563 33.1063C158.558 33.3811 158.621 33.653 158.746 33.8981C158.871 34.1173 159.05 34.3003 159.268 34.4289C159.494 34.5485 159.747 34.611 160.003 34.611C160.259 34.611 160.512 34.5485 160.738 34.4289Z" fill="#52BAAB"/>
<path d="M164.951 31.131C165.25 30.991 165.578 30.9225 165.908 30.9309V31.6879H165.726C165.545 31.677 165.363 31.7047 165.194 31.7692C165.024 31.8337 164.87 31.9335 164.742 32.062C164.489 32.3554 164.361 32.7366 164.386 33.1236V35.2554H163.594V30.9744H164.333V31.6879C164.475 31.441 164.691 31.2459 164.951 31.131Z" fill="#52BAAB"/>
<path d="M170.084 31.366C170.249 31.5368 170.377 31.7406 170.458 31.9641C170.539 32.1875 170.571 32.4255 170.554 32.6625V35.2729H169.823V34.6812C169.688 34.8852 169.494 35.0431 169.266 35.1336C168.991 35.2473 168.694 35.3007 168.396 35.2903C167.984 35.3141 167.577 35.1907 167.248 34.9422C167.113 34.84 167.005 34.7084 166.929 34.5576C166.854 34.4068 166.814 34.2407 166.812 34.0721C166.813 33.9059 166.849 33.7418 166.92 33.5914C166.991 33.441 167.094 33.308 167.221 33.202C167.603 32.9382 168.064 32.8151 168.527 32.8539H169.754V32.706C169.763 32.5653 169.742 32.4242 169.693 32.2922C169.643 32.1601 169.566 32.0402 169.466 31.9403C169.223 31.7404 168.91 31.6436 168.596 31.6705C168.341 31.6707 168.088 31.7149 167.848 31.801C167.626 31.8722 167.419 31.9843 167.239 32.1317L166.917 31.5487C167.152 31.3643 167.421 31.2283 167.709 31.1485C168.024 31.0494 168.353 30.9995 168.683 31.0005C169.18 30.937 169.682 31.068 170.084 31.366ZM169.31 34.4984C169.524 34.3697 169.689 34.1739 169.78 33.9416V33.3412H168.588C167.935 33.3412 167.604 33.5674 167.604 34.0025C167.601 34.1009 167.622 34.1987 167.666 34.2868C167.711 34.375 167.776 34.4507 167.857 34.5071C168.057 34.6471 168.3 34.7146 168.544 34.6986C168.813 34.7049 169.078 34.6356 169.31 34.4984Z" fill="#52BAAB"/>
<path d="M175.68 31.2094C176.006 31.3851 176.275 31.6509 176.454 31.9751C176.637 32.3257 176.733 32.7152 176.733 33.1107C176.733 33.5061 176.637 33.8956 176.454 34.2462C176.275 34.573 176.007 34.8418 175.68 35.0206C175.341 35.2054 174.96 35.2984 174.575 35.2903C174.275 35.2945 173.977 35.2321 173.705 35.1076C173.446 34.9842 173.222 34.7989 173.052 34.5681V35.2468H172.295V29.269H173.069V31.6184C173.236 31.3949 173.458 31.2181 173.713 31.105C173.987 30.9845 174.284 30.9252 174.583 30.931C174.967 30.9275 175.344 31.0235 175.68 31.2094ZM175.245 34.4289C175.468 34.305 175.652 34.1211 175.775 33.8981C175.907 33.6552 175.973 33.3824 175.967 33.1063C175.974 32.8329 175.908 32.5626 175.775 32.3232C175.658 32.1032 175.48 31.9218 175.262 31.8011C175.037 31.6754 174.784 31.6093 174.527 31.6093C174.269 31.6093 174.016 31.6754 173.792 31.8011C173.574 31.9218 173.395 32.1032 173.278 32.3232C173.153 32.5648 173.09 32.8341 173.095 33.1063C173.091 33.3812 173.154 33.653 173.278 33.8981C173.397 34.1188 173.575 34.3025 173.792 34.4289C174.018 34.5485 174.271 34.6111 174.527 34.6111C174.783 34.6111 175.035 34.5485 175.262 34.4289H175.245Z" fill="#52BAAB"/>
<path d="M178.125 29.269H178.899V35.2468H178.125V29.269Z" fill="#52BAAB"/>
<path d="M184.539 33.3672H181.058C181.079 33.5379 181.134 33.7027 181.219 33.8521C181.304 34.0015 181.418 34.1324 181.554 34.2373C181.851 34.47 182.221 34.5901 182.598 34.5767C182.829 34.587 183.06 34.5464 183.273 34.4577C183.487 34.369 183.678 34.2343 183.834 34.0633L184.26 34.568C184.064 34.7939 183.816 34.9699 183.538 35.0813C183.233 35.1988 182.908 35.2578 182.581 35.2554C182.163 35.2666 181.75 35.1708 181.38 34.9769C181.042 34.8019 180.761 34.533 180.571 34.2025C180.376 33.8577 180.277 33.4672 180.284 33.0713C180.276 32.6819 180.372 32.2974 180.562 31.9576C180.737 31.6287 181.003 31.3569 181.328 31.1745C181.663 30.987 182.041 30.8909 182.424 30.896C182.805 30.89 183.181 30.9861 183.512 31.1745C183.832 31.3598 184.095 31.631 184.269 31.9576C184.451 32.3097 184.543 32.7011 184.539 33.0974C184.556 33.1932 184.547 33.2715 184.539 33.3672ZM181.511 31.9228C181.263 32.1491 181.108 32.4591 181.076 32.7929H183.808C183.779 32.4529 183.622 32.1367 183.368 31.9087C183.114 31.6807 182.783 31.5582 182.442 31.566C182.097 31.5598 181.763 31.6877 181.511 31.9228Z" fill="#52BAAB"/>
</g>
<defs>
<linearGradient id="paint0_linear_1_210" x1="21.929" y1="14.0986" x2="21.929" y2="48.1838" gradientUnits="userSpaceOnUse">
<stop stop-color="#5FC3DB"/>
<stop offset="0.53125" stop-color="#52BAAB"/>
<stop offset="1" stop-color="#469979"/>
</linearGradient>
<clipPath id="clip0_1_210">
<rect width="185.208" height="43.75" fill="white" transform="translate(0 0.833252)"/>
</clipPath>
</defs>
</svg>
