<svg width="44" height="44" viewBox="0 0 44 44" fill="none" xmlns="http://www.w3.org/2000/svg">
<path d="M12.7235 29.4483L21.9387 7.39926V7.46017L31.1973 29.3613C32.8768 28.8392 36.0964 25.9765 36.0964 25.9765L25.1931 0.125H18.7277L7.8418 26.0461C9.13624 27.5955 10.8218 28.7702 12.7235 29.4483Z" fill="black"/>
<path d="M34.8008 37.7319L37.4112 43.875H43.8675L39.4647 33.6597C38.0871 35.2074 36.5202 36.5756 34.8008 37.7319Z" fill="#1B1B1B"/>
<path d="M4.44829 33.7295L0.0976562 43.8752H6.5279L9.13828 37.7843C7.41054 36.6354 5.83475 35.2731 4.44829 33.7295Z" fill="black"/>
<path d="M37.4635 25.7851L40.2394 24.9759C39.7586 25.9082 39.1748 26.7838 38.4991 27.5862C36.7449 29.7686 34.3542 31.3502 31.6595 32.1109C31.1988 32.2251 30.7306 32.3065 30.2585 32.3545C27.8829 32.5982 26.2209 31.9021 25.4638 30.3271C24.4554 28.1737 23.9156 25.8307 23.8801 23.4531C23.8801 23.3574 23.8801 23.1747 23.8801 22.8962V20.0596L21.9657 15.6133L19.9991 20.2076V23.427C19.9701 25.8333 19.4302 28.206 18.4154 30.388C17.6583 31.963 16.005 32.6591 13.6207 32.4154C13.1523 32.3654 12.6873 32.2869 12.2284 32.1805C9.52846 31.3881 7.13951 29.7804 5.38885 27.5775C4.71223 26.7758 4.12841 25.9001 3.6485 24.9671L6.52878 25.8373L0.150391 19.5028V28.7522C0.78812 27.8432 1.36934 26.8959 1.89074 25.9156C2.71081 27.9018 3.8032 29.7643 5.1365 31.4496C6.91684 33.6791 9.10876 35.5459 11.5932 36.9488L12.1327 37.2708L12.446 37.4535C14.4909 38.6543 16.6141 39.9768 18.9375 41.5083C19.8113 42.1022 20.6536 42.7411 21.461 43.4226L21.9831 43.8489L22.5052 43.4226C23.3075 42.7385 24.1471 42.0995 25.02 41.5083C27.3521 39.9768 29.4753 38.6543 31.5115 37.4535L31.8248 37.2708L32.373 36.9488C34.8559 35.5436 37.0474 33.6771 38.8297 31.4496C40.1833 29.7323 41.285 27.8308 42.1016 25.8025C42.6438 26.8145 43.2453 27.7936 43.9029 28.7348V19.5028L37.4635 25.7851Z" fill="url(#paint0_linear_2006_11934)"/>
<defs>
<linearGradient id="paint0_linear_2006_11934" x1="22.0266" y1="13.3903" x2="22.0266" y2="47.4755" gradientUnits="userSpaceOnUse">
<stop stop-color="#5FC3DB"/>
<stop offset="0.53125" stop-color="#52BAAB"/>
<stop offset="1" stop-color="#469979"/>
</linearGradient>
</defs>
</svg>
