<svg width="19" height="14" viewBox="0 0 19 14" fill="none" xmlns="http://www.w3.org/2000/svg">
<g clip-path="url(#clip0_2002_271)">
<path d="M18.3856 1.15561C18.0347 0.554386 17.3891 0.145996 16.6412 0.145996H9.55208V1.15561H18.3856ZM0.4375 10.2422H18.6667V11.2518H0.4375V10.2422ZM9.55208 6.20369H18.6667V7.2133H9.55208V6.20369ZM9.55208 4.18446H18.6667V5.19407H9.55208V4.18446ZM0.4375 8.22292H18.6667V9.23253H0.4375V8.22292ZM2.46296 13.271H16.6412C17.3891 13.271 18.0347 12.8626 18.3856 12.2614H0.718533C1.06944 12.8626 1.71506 13.271 2.46296 13.271ZM9.55208 2.16523H18.6667V3.17484H9.55208V2.16523Z" fill="#B22334"/>
<path d="M0.471933 11.5944C0.480541 11.6414 0.490162 11.6883 0.501808 11.7343C0.514974 11.7853 0.531178 11.8342 0.548394 11.8837C0.593461 12.0144 0.648148 12.1406 0.717014 12.2588L0.718533 12.2613H18.3856L18.3866 12.2593C18.4546 12.1403 18.5109 12.015 18.5548 11.8852C18.5881 11.7905 18.6138 11.6932 18.6317 11.5944C18.6525 11.4834 18.6667 11.3693 18.6667 11.2517H0.4375C0.4375 11.3693 0.451678 11.4829 0.471933 11.5944ZM0.4375 9.23244H18.6667V10.2421H0.4375V9.23244ZM0.4375 7.21321V8.22283H18.6667V7.21321H9.55208H0.4375ZM9.55208 5.19398H18.6667V6.20359H9.55208V5.19398ZM9.55208 3.17475H18.6667V4.18436H9.55208V3.17475ZM0.502315 1.68254C0.514974 1.63105 0.532697 1.58208 0.5489 1.53261C0.531316 1.58193 0.515774 1.63194 0.502315 1.68254ZM9.55208 2.16513H18.6667C18.6667 2.04751 18.6525 1.93343 18.6317 1.82186C18.614 1.72298 18.5881 1.62572 18.5543 1.53109C18.5104 1.40076 18.4539 1.27498 18.3856 1.15552H9.55208V2.16513Z" fill="#EEEEEE"/>
<path d="M9.55208 0.145996H2.46296C1.92578 0.145996 1.41059 0.358736 1.03074 0.737415C0.650896 1.11609 0.4375 1.62969 0.4375 2.16523L0.4375 7.2133H9.55208V0.145996Z" fill="#3C3B6E"/>
<path d="M1.44922 1.52201L1.76215 1.74867L1.64265 2.11465L1.95508 1.8885L2.26801 2.11465L2.14851 1.74867L2.46144 1.52201H2.07458L1.95508 1.15552L1.83608 1.52201H1.44922ZM2.46195 2.53162L2.77488 2.75828L2.65538 3.12427L2.96781 2.89811L3.28074 3.12427L3.16124 2.75828L3.47418 2.53162H3.08731L2.96781 2.16513L2.84881 2.53162H2.46195ZM4.48741 2.53162L4.80035 2.75828L4.68085 3.12427L4.99327 2.89811L5.30621 3.12427L5.1867 2.75828L5.49964 2.53162H5.11278L4.99327 2.16513L4.87428 2.53162H4.48741ZM6.51288 2.53162L6.82581 2.75828L6.70631 3.12427L7.01874 2.89811L7.33167 3.12427L7.21217 2.75828L7.5251 2.53162H7.13824L7.01874 2.16513L6.89974 2.53162H6.51288ZM2.46195 4.55085L2.77488 4.77751L2.65538 5.1435L2.96781 4.91734L3.28074 5.1435L3.16124 4.77751L3.47418 4.55085H3.08731L2.96781 4.18436L2.84881 4.55085H2.46195ZM4.48741 4.55085L4.80035 4.77751L4.68085 5.1435L4.99327 4.91734L5.30621 5.1435L5.1867 4.77751L5.49964 4.55085H5.11278L4.99327 4.18436L4.87428 4.55085H4.48741ZM6.51288 4.55085L6.82581 4.77751L6.70631 5.1435L7.01874 4.91734L7.33167 5.1435L7.21217 4.77751L7.5251 4.55085H7.13824L7.01874 4.18436L6.89974 4.55085H6.51288ZM3.47468 1.52201L3.78762 1.74867L3.66811 2.11465L3.98054 1.8885L4.29348 2.11465L4.17397 1.74867L4.48691 1.52201H4.10004L3.98054 1.15552L3.86155 1.52201H3.47468ZM5.50014 1.52201L5.81308 1.74867L5.69358 2.11465L6.006 1.8885L6.31894 2.11465L6.19944 1.74867L6.51237 1.52201H6.12551L6.006 1.15552L5.88701 1.52201H5.50014ZM7.52561 1.52201L7.83854 1.74867L7.71904 2.11465L8.03147 1.8885L8.3444 2.11465L8.2249 1.74867L8.53783 1.52201H8.15097L8.03147 1.15552L7.91247 1.52201H7.52561ZM1.44922 3.54124L1.76215 3.7679L1.64265 4.13388L1.95508 3.90773L2.26801 4.13388L2.14851 3.7679L2.46144 3.54124H2.07458L1.95508 3.17475L1.83608 3.54124H1.44922ZM3.66811 4.13388L3.98054 3.90773L4.29348 4.13388L4.17397 3.7679L4.48691 3.54124H4.10004L3.98054 3.17475L3.86155 3.54124H3.47468L3.78762 3.7679L3.66811 4.13388ZM5.50014 3.54124L5.81308 3.7679L5.69358 4.13388L6.006 3.90773L6.31894 4.13388L6.19944 3.7679L6.51237 3.54124H6.12551L6.006 3.17475L5.88701 3.54124H5.50014ZM7.52561 3.54124L7.83854 3.7679L7.71904 4.13388L8.03147 3.90773L8.3444 4.13388L8.2249 3.7679L8.53783 3.54124H8.15097L8.03147 3.17475L7.91247 3.54124H7.52561ZM1.44922 5.56047L1.76215 5.78713L1.64265 6.15311L1.95508 5.92696L2.26801 6.15311L2.14851 5.78713L2.46144 5.56047H2.07458L1.95508 5.19398L1.83608 5.56047H1.44922ZM3.66811 6.15311L3.98054 5.92696L4.29348 6.15311L4.17397 5.78713L4.48691 5.56047H4.10004L3.98054 5.19398L3.86155 5.56047H3.47468L3.78762 5.78713L3.66811 6.15311ZM5.50014 5.56047L5.81308 5.78713L5.69358 6.15311L6.006 5.92696L6.31894 6.15311L6.19944 5.78713L6.51237 5.56047H6.12551L6.006 5.19398L5.88701 5.56047H5.50014ZM7.52561 5.56047L7.83854 5.78713L7.71904 6.15311L8.03147 5.92696L8.3444 6.15311L8.2249 5.78713L8.53783 5.56047H8.15097L8.03147 5.19398L7.91247 5.56047H7.52561Z" fill="white"/>
</g>
<defs>
<clipPath id="clip0_2002_271">
<rect width="18.2292" height="13.125" fill="white" transform="translate(0.4375 0.145996)"/>
</clipPath>
</defs>
</svg>
