<svg width="37" height="37" viewBox="0 0 37 37" fill="none" xmlns="http://www.w3.org/2000/svg">
<rect x="0.542969" y="0.291687" width="36.4583" height="36.4583" rx="18.2292" fill="url(#paint0_linear_1_447)"/>
<path d="M15.0827 13.417C15.0825 13.8038 14.9287 14.1746 14.655 14.448C14.3814 14.7213 14.0104 14.8748 13.6236 14.8746C13.2368 14.8744 12.866 14.7206 12.5926 14.447C12.3193 14.1733 12.1658 13.8023 12.166 13.4156C12.1662 13.0288 12.32 12.6579 12.5937 12.3846C12.8673 12.1112 13.2383 11.9578 13.6251 11.9579C14.0119 11.9581 14.3827 12.112 14.6561 12.3856C14.9294 12.6592 15.0829 13.0302 15.0827 13.417ZM15.1264 15.9545H12.2098V25.0837H15.1264V15.9545ZM19.7348 15.9545H16.8327V25.0837H19.7056V20.2931C19.7056 17.6243 23.1837 17.3764 23.1837 20.2931V25.0837H26.0639V19.3014C26.0639 14.8024 20.916 14.9701 19.7056 17.1795L19.7348 15.9545Z" fill="white"/>
<defs>
<linearGradient id="paint0_linear_1_447" x1="18.7721" y1="-2.57865" x2="18.7721" y2="41.4328" gradientUnits="userSpaceOnUse">
<stop stop-color="#5FC3DB"/>
<stop offset="0.53125" stop-color="#52BAAB"/>
<stop offset="1" stop-color="#469979"/>
</linearGradient>
</defs>
</svg>
