<svg width="37" height="37" viewBox="0 0 37 37" fill="none" xmlns="http://www.w3.org/2000/svg">
<rect x="0.458984" y="0.291687" width="36.4583" height="36.4583" rx="18.2292" fill="url(#paint0_linear_1_441)"/>
<path d="M15.6257 11.2292H21.7507C24.084 11.2292 25.9798 13.125 25.9798 15.4584V21.5834C25.9798 22.705 25.5342 23.7807 24.7411 24.5738C23.948 25.3669 22.8723 25.8125 21.7507 25.8125H15.6257C13.2923 25.8125 11.3965 23.9167 11.3965 21.5834V15.4584C11.3965 14.3367 11.8421 13.261 12.6352 12.4679C13.4283 11.6748 14.504 11.2292 15.6257 11.2292ZM15.4798 12.6875C14.7836 12.6875 14.1159 12.9641 13.6237 13.4564C13.1314 13.9486 12.8548 14.6163 12.8548 15.3125V21.7292C12.8548 23.1802 14.0288 24.3542 15.4798 24.3542H21.8965C22.5927 24.3542 23.2604 24.0776 23.7526 23.5853C24.2449 23.0931 24.5215 22.4254 24.5215 21.7292V15.3125C24.5215 13.8615 23.3475 12.6875 21.8965 12.6875H15.4798ZM22.5163 13.7813C22.758 13.7813 22.9898 13.8773 23.1608 14.0482C23.3317 14.2192 23.4277 14.451 23.4277 14.6927C23.4277 14.9345 23.3317 15.1663 23.1608 15.3372C22.9898 15.5082 22.758 15.6042 22.5163 15.6042C22.2745 15.6042 22.0427 15.5082 21.8718 15.3372C21.7008 15.1663 21.6048 14.9345 21.6048 14.6927C21.6048 14.451 21.7008 14.2192 21.8718 14.0482C22.0427 13.8773 22.2745 13.7813 22.5163 13.7813ZM18.6882 14.875C19.6551 14.875 20.5824 15.2591 21.2661 15.9429C21.9499 16.6266 22.334 17.5539 22.334 18.5209C22.334 19.4878 21.9499 20.4151 21.2661 21.0988C20.5824 21.7826 19.6551 22.1667 18.6882 22.1667C17.7212 22.1667 16.7939 21.7826 16.1102 21.0988C15.4264 20.4151 15.0423 19.4878 15.0423 18.5209C15.0423 17.5539 15.4264 16.6266 16.1102 15.9429C16.7939 15.2591 17.7212 14.875 18.6882 14.875ZM18.6882 16.3334C18.108 16.3334 17.5516 16.5638 17.1414 16.9741C16.7311 17.3843 16.5007 17.9407 16.5007 18.5209C16.5007 19.101 16.7311 19.6574 17.1414 20.0676C17.5516 20.4779 18.108 20.7084 18.6882 20.7084C19.2683 20.7084 19.8247 20.4779 20.2349 20.0676C20.6452 19.6574 20.8757 19.101 20.8757 18.5209C20.8757 17.9407 20.6452 17.3843 20.2349 16.9741C19.8247 16.5638 19.2683 16.3334 18.6882 16.3334Z" fill="white"/>
<defs>
<linearGradient id="paint0_linear_1_441" x1="18.6882" y1="-2.57865" x2="18.6881" y2="41.4328" gradientUnits="userSpaceOnUse">
<stop stop-color="#5FC3DB"/>
<stop offset="0.53125" stop-color="#52BAAB"/>
<stop offset="1" stop-color="#469979"/>
</linearGradient>
</defs>
</svg>
