<svg width="187" height="44" viewBox="0 0 187 44" fill="none" xmlns="http://www.w3.org/2000/svg">
<path d="M13.6004 29.3233L22.8156 7.27426V7.33517L32.0743 29.2363C33.7537 28.7142 36.9734 25.8515 36.9734 25.8515L26.0701 0H19.6047L8.71875 25.9211C10.0132 27.4705 11.6987 28.6452 13.6004 29.3233Z" fill="white"/>
<path d="M35.6777 37.6069L38.2881 43.75H44.7445L40.3416 33.5347C38.9641 35.0824 37.3971 36.4506 35.6777 37.6069Z" fill="white"/>
<path d="M5.32525 33.6045L0.974609 43.7502H7.40485L10.0152 37.6593C8.28749 36.5104 6.7117 35.1481 5.32525 33.6045Z" fill="white"/>
<path d="M38.3405 25.6601L41.1164 24.8509C40.6355 25.7832 40.0518 26.6588 39.376 27.4612C37.6219 29.6436 35.2312 31.2252 32.5364 31.9859C32.0758 32.1001 31.6076 32.1815 31.1354 32.2295C28.7599 32.4732 27.0978 31.7771 26.3408 30.2021C25.3324 28.0487 24.7926 25.7057 24.7571 23.3281C24.7571 23.2324 24.7571 23.0497 24.7571 22.7712V19.9346L22.8427 15.4883L20.8761 20.0826V23.302C20.847 25.7083 20.3072 28.081 19.2923 30.263C18.5353 31.838 16.882 32.5341 14.4977 32.2904C14.0293 32.2404 13.5643 32.1619 13.1054 32.0555C10.4054 31.2631 8.01646 29.6554 6.26581 27.4525C5.58918 26.6508 5.00536 25.7751 4.52545 24.8421L7.40574 25.7123L1.02734 19.3778V28.6272C1.66507 27.7182 2.24629 26.7709 2.7677 25.7906C3.58776 27.7768 4.68015 29.6393 6.01345 31.3246C7.79379 33.5541 9.98572 35.4209 12.4702 36.8238L13.0097 37.1458L13.3229 37.3285C15.3678 38.5293 17.4911 39.8518 19.8145 41.3833C20.6883 41.9772 21.5306 42.6161 22.338 43.2976L22.8601 43.7239L23.3822 43.2976C24.1845 42.6135 25.024 41.9745 25.897 41.3833C28.2291 39.8518 30.3523 38.5293 32.3885 37.3285L32.7018 37.1458L33.25 36.8238C35.7328 35.4186 37.9243 33.5521 39.7067 31.3246C41.0602 29.6073 42.1619 27.7058 42.9785 25.6775C43.5208 26.6895 44.1222 27.6686 44.7798 28.6098V19.3778L38.3405 25.6601Z" fill="url(#paint0_linear_2209_18623)"/>
<path d="M91.229 24.7726L88.0964 20.2828C87.9022 20.2958 87.7075 20.2958 87.5133 20.2828H81.9007V24.7465H79.0117V9.44971H87.5133C91.5423 9.44971 94.0397 11.5032 94.0397 14.8967C94.0865 15.9464 93.7947 16.9834 93.2071 17.8545C92.6195 18.7256 91.7674 19.3848 90.7765 19.7346L94.2572 24.7726H91.229ZM87.3741 11.8513H81.9007V17.9422H87.4176C89.915 17.9422 91.2116 16.8023 91.2116 14.8706C91.2116 12.9389 89.8715 11.8513 87.3741 11.8513Z" fill="white"/>
<path d="M104.709 18.3598L100.959 22.2319V24.7726H98.1133V9.44971H100.959V18.6905L109.852 9.44971H113.054L106.615 16.2976L113.446 24.7726H110.122L104.709 18.3598Z" fill="white"/>
<path d="M140.203 9.44971H143.048V22.4146H151.75V24.8249H140.203V9.44971Z" fill="white"/>
<path d="M155.518 9.44971H158.363V22.4146H167.064V24.8249H155.518V9.44971Z" fill="white"/>
<path d="M179.883 19.3692V24.8336H176.951V19.4127L170.859 9.44971H174.001L178.491 16.9154L183.285 9.44971H186.166L179.883 19.3692Z" fill="white"/>
<path d="M69.9356 21.2309H61.1294L59.3891 24.7723H56.0215L63.9488 9.4668H67.1684L75.1219 24.7723H71.7021L69.9356 21.2309ZM68.8479 18.9947L65.5238 12.3034L62.2345 18.9947H68.8479Z" fill="white"/>
<path d="M131.187 21.2309H122.372L120.632 24.7723H117.256L125.183 9.4668H128.412L136.365 24.7723H132.936L131.187 21.2309ZM130.1 18.9947L126.784 12.3034L123.486 18.9947H130.1Z" fill="white"/>
<path d="M60.7286 34.4133V30.3063L58.6925 33.7259H58.3183L56.2822 30.3237V34.4133H55.5078V28.7749H56.1691L58.5185 32.734L60.8417 28.7749H61.503V34.4133H60.7286Z" fill="#52BAAB"/>
<path d="M66.3166 30.5325C66.4818 30.7033 66.609 30.9071 66.69 31.1306C66.7709 31.354 66.8038 31.592 66.7865 31.829V34.4394H66.0556V33.8477C65.9204 34.0517 65.7261 34.2096 65.4987 34.3001C65.2231 34.4138 64.9264 34.4673 64.6286 34.4568C64.2165 34.4806 63.8095 34.3573 63.48 34.1087C63.3459 34.0065 63.237 33.8749 63.1615 33.7241C63.0861 33.5733 63.0462 33.4072 63.0449 33.2386C63.045 33.0724 63.0817 32.9083 63.1524 32.7579C63.223 32.6075 63.326 32.4746 63.4539 32.3685C63.8355 32.1047 64.2968 31.9817 64.7591 32.0204H65.9859V31.8725C65.9953 31.7318 65.9745 31.5907 65.925 31.4587C65.8754 31.3266 65.7983 31.2067 65.6988 31.1068C65.455 30.9069 65.1428 30.8101 64.8287 30.837C64.5736 30.8372 64.3204 30.8814 64.0804 30.9676C63.8584 31.0387 63.6518 31.1508 63.4713 31.2982L63.1493 30.7152C63.3843 30.5308 63.6534 30.3948 63.9412 30.315C64.2565 30.2159 64.5852 30.166 64.9157 30.167C65.4123 30.1036 65.9143 30.2345 66.3166 30.5325ZM65.5422 33.6649C65.7559 33.5362 65.9211 33.3404 66.0121 33.1081V32.5077H64.82C64.1674 32.5077 63.8367 32.7339 63.8367 33.169C63.8334 33.2675 63.8548 33.3652 63.8989 33.4533C63.9429 33.5415 64.0083 33.6172 64.0891 33.6736C64.2899 33.8136 64.5323 33.8811 64.7765 33.8651C65.0454 33.8714 65.3107 33.8021 65.5422 33.6649Z" fill="#52BAAB"/>
<path d="M70.1964 32.4207L69.3263 33.2386V34.4133H68.5605V28.4355H69.3263V32.2641L71.6582 30.141H72.5892L70.7968 31.8813L72.772 34.3872H71.8148L70.1964 32.4207Z" fill="#52BAAB"/>
<path d="M73.783 29.1752C73.7341 29.13 73.6955 29.0747 73.6699 29.0131C73.6444 28.9515 73.6325 28.8851 73.6351 28.8185C73.6331 28.7519 73.6452 28.6857 73.6707 28.6242C73.6962 28.5627 73.7345 28.5073 73.783 28.4617C73.8319 28.4127 73.8904 28.3743 73.9547 28.3489C74.0191 28.3234 74.088 28.3115 74.1572 28.3138C74.2954 28.3088 74.43 28.3589 74.5313 28.453C74.5788 28.4976 74.6164 28.5516 74.6419 28.6115C74.6673 28.6714 74.6801 28.736 74.6793 28.8011C74.6817 28.8703 74.6699 28.9393 74.6445 29.0037C74.6191 29.0682 74.5807 29.1267 74.5318 29.1757C74.4828 29.2246 74.4243 29.263 74.3598 29.2884C74.2954 29.3138 74.2264 29.3256 74.1572 29.3232C74.088 29.3255 74.0191 29.3135 73.9547 29.2881C73.8904 29.2627 73.8319 29.2242 73.783 29.1752ZM73.783 30.1411H74.5574V34.4134H73.783V30.1411Z" fill="#52BAAB"/>
<path d="M79.9074 30.5765C80.0766 30.761 80.2064 30.978 80.2887 31.2145C80.371 31.4509 80.4041 31.7017 80.3859 31.9513V34.4138H79.6115V32.047C79.6313 31.7037 79.5157 31.3664 79.2896 31.1073C79.1748 30.9967 79.0379 30.9117 78.888 30.8577C78.738 30.8037 78.5784 30.782 78.4194 30.7941C78.238 30.7845 78.0564 30.812 77.8859 30.8748C77.7154 30.9377 77.5594 31.0345 77.4275 31.1595C77.189 31.4493 77.0734 31.821 77.1056 32.195V34.3964H76.3398V30.1415H77.0795V30.7854C77.2383 30.5631 77.455 30.3886 77.7059 30.2807C77.9805 30.161 78.2766 30.0988 78.5761 30.098C78.8191 30.0801 79.0632 30.1134 79.2925 30.1959C79.5219 30.2783 79.7313 30.408 79.9074 30.5765Z" fill="#52BAAB"/>
<path d="M86.2521 30.1412V33.8305C86.2779 34.1296 86.2417 34.4307 86.1459 34.7152C86.0501 34.9996 85.8967 35.2613 85.6952 35.4838C85.2339 35.8755 84.6367 36.0694 84.0333 36.0233C83.6446 36.022 83.258 35.9663 82.8847 35.8579C82.565 35.7638 82.2686 35.6038 82.0146 35.3881L82.3887 34.7877C82.607 34.9698 82.8581 35.1086 83.1283 35.1966C83.409 35.2906 83.7025 35.3405 83.9985 35.3446C84.3994 35.3753 84.7963 35.2472 85.1035 34.9878C85.3627 34.7002 85.4973 34.3216 85.4777 33.935V33.5956C85.3012 33.8163 85.0703 33.9872 84.8077 34.0916C84.5318 34.2048 84.2358 34.2611 83.9376 34.2569C83.5533 34.2626 83.1736 34.1729 82.8325 33.9959C82.5101 33.8308 82.2415 33.5772 82.0581 33.265C81.8703 32.9379 81.7715 32.5674 81.7715 32.1903C81.7715 31.8133 81.8703 31.4427 82.0581 31.1157C82.2415 30.8035 82.5101 30.5499 82.8325 30.3848C83.1736 30.2078 83.5533 30.1181 83.9376 30.1238C84.2369 30.1261 84.5327 30.1882 84.8077 30.3065C85.0756 30.4183 85.3096 30.5983 85.4864 30.8286V30.1673L86.2521 30.1412ZM84.7816 33.3781C85.0022 33.2701 85.1845 33.0969 85.3037 32.8821C85.4633 32.6083 85.5286 32.2897 85.4892 31.9752C85.4499 31.6607 85.3083 31.3679 85.0861 31.1418C84.7975 30.8835 84.4204 30.7464 84.0333 30.759C83.6406 30.7446 83.2574 30.8817 82.963 31.1418C82.7409 31.3679 82.5992 31.6607 82.5599 31.9752C82.5206 32.2897 82.5858 32.6083 82.7455 32.8821C82.8647 33.0969 83.0469 33.2701 83.2676 33.3781C83.5033 33.5025 83.7667 33.5653 84.0333 33.5608C84.2942 33.5643 84.5516 33.5014 84.7816 33.3781Z" fill="#52BAAB"/>
<path d="M92.804 32.4642V34.4133H92.0122V32.4468L89.7324 28.7749H90.6025L92.4124 31.742L94.2223 28.7749H95.0228L92.804 32.4642Z" fill="#52BAAB"/>
<path d="M96.2669 34.1787C95.9364 33.9949 95.6625 33.7241 95.475 33.3956C95.2796 33.0543 95.1804 32.6664 95.1879 32.2732C95.1817 31.8801 95.2808 31.4925 95.475 31.1507C95.6631 30.8249 95.937 30.557 96.2669 30.3763C96.6203 30.1886 97.0153 30.0928 97.4154 30.0978C97.8128 30.0928 98.205 30.1886 98.5553 30.3763C98.8828 30.5572 99.1538 30.8252 99.3384 31.1507C99.5326 31.4925 99.6318 31.8801 99.6256 32.2732C99.6331 32.6664 99.5338 33.0543 99.3384 33.3956C99.154 33.7235 98.8831 33.9944 98.5553 34.1787C98.205 34.3665 97.8128 34.4623 97.4154 34.4572C97.0153 34.4622 96.6203 34.3665 96.2669 34.1787ZM98.1463 33.5958C98.3629 33.4693 98.5406 33.2857 98.6597 33.065C98.7872 32.8206 98.8529 32.5488 98.8511 32.2732C98.854 32.0002 98.7882 31.7309 98.6597 31.4901C98.5427 31.27 98.3644 31.0887 98.1463 30.968C97.9255 30.8367 97.6722 30.7704 97.4154 30.7765C97.1559 30.7706 96.8999 30.8369 96.6758 30.968C96.4578 31.0887 96.2794 31.27 96.1624 31.4901C96.0302 31.7295 95.9642 31.9998 95.971 32.2732C95.9651 32.5492 96.0311 32.8221 96.1624 33.065C96.2816 33.2857 96.4592 33.4693 96.6758 33.5958C96.9022 33.7202 97.1572 33.7832 97.4154 33.7785C97.6709 33.7833 97.9232 33.7203 98.1463 33.5958Z" fill="#52BAAB"/>
<path d="M105.004 30.1411V34.4134H104.265V33.7695C104.113 33.9912 103.902 34.1659 103.656 34.2742C103.384 34.4014 103.086 34.4639 102.786 34.4569C102.536 34.4836 102.283 34.4536 102.046 34.3691C101.81 34.2845 101.595 34.1477 101.419 33.9687C101.242 33.7897 101.108 33.5732 101.027 33.3354C100.946 33.0975 100.919 32.8444 100.95 32.5949V30.1411H101.724V32.5079C101.697 32.8476 101.803 33.1846 102.02 33.4476C102.134 33.5602 102.27 33.6472 102.42 33.7027C102.57 33.7582 102.73 33.781 102.89 33.7695C103.068 33.7774 103.246 33.7483 103.412 33.6839C103.578 33.6194 103.73 33.5212 103.856 33.3954C104.108 33.1083 104.237 32.7328 104.213 32.3512V30.1411H105.004Z" fill="#52BAAB"/>
<path d="M108.137 30.298C108.436 30.158 108.763 30.0895 109.094 30.0978V30.8549H108.876C108.695 30.8445 108.514 30.8725 108.345 30.937C108.175 31.0014 108.021 31.101 107.893 31.229C107.639 31.5224 107.511 31.9036 107.536 32.2906V34.4224H106.762V30.1414H107.501V30.8549C107.647 30.6052 107.87 30.4097 108.137 30.298Z" fill="#52BAAB"/>
<path d="M114.141 29.471H112.209V28.7749H116.873V29.471H114.967V34.4133H114.167L114.141 29.471Z" fill="#52BAAB"/>
<path d="M117.865 29.1752C117.817 29.1287 117.78 29.0731 117.755 29.0119C117.729 28.9506 117.716 28.8848 117.717 28.8185C117.717 28.6847 117.77 28.5563 117.865 28.4617C117.965 28.3652 118.1 28.3121 118.239 28.3138C118.307 28.3098 118.376 28.3202 118.441 28.3441C118.505 28.3681 118.564 28.4052 118.613 28.453C118.662 28.4966 118.7 28.5504 118.726 28.6105C118.752 28.6707 118.763 28.7358 118.761 28.8011C118.764 28.8703 118.752 28.9394 118.727 29.0038C118.701 29.0683 118.662 29.1267 118.613 29.1752C118.564 29.2242 118.506 29.2627 118.441 29.2881C118.377 29.3136 118.308 29.3255 118.239 29.3232C118.1 29.3249 117.965 29.2717 117.865 29.1752ZM117.865 30.1411H118.639V34.4134H117.865V30.1411Z" fill="#52BAAB"/>
<path d="M127.037 30.5674C127.207 30.7531 127.337 30.9717 127.419 31.2096C127.501 31.4475 127.534 31.6998 127.515 31.9509V34.4133H126.741V32.0466C126.767 31.7084 126.664 31.3728 126.454 31.1068C126.348 30.999 126.22 30.9152 126.079 30.8611C125.938 30.8071 125.787 30.7841 125.636 30.7936C125.464 30.7846 125.291 30.8125 125.131 30.8756C124.97 30.9386 124.825 31.0353 124.705 31.1591C124.455 31.4507 124.33 31.8289 124.357 32.2119V34.4133H123.582V32.0466C123.608 31.7084 123.506 31.3728 123.295 31.1068C123.189 30.999 123.062 30.9152 122.92 30.8611C122.779 30.8071 122.628 30.7841 122.477 30.7936C122.305 30.7846 122.133 30.8125 121.972 30.8756C121.812 30.9386 121.666 31.0353 121.546 31.1591C121.296 31.4507 121.171 31.8289 121.198 32.2119V34.4133H120.424V30.141H121.163V30.7762C121.323 30.5585 121.536 30.3849 121.781 30.2715C122.055 30.1519 122.352 30.0925 122.651 30.0975C122.954 30.0928 123.254 30.1646 123.521 30.3063C123.777 30.434 123.987 30.6377 124.122 30.8893C124.287 30.6392 124.519 30.4403 124.792 30.315C125.094 30.1648 125.429 30.0901 125.766 30.0975C125.999 30.0869 126.231 30.1231 126.449 30.2038C126.667 30.2845 126.867 30.4081 127.037 30.5674Z" fill="#52BAAB"/>
<path d="M133.128 32.5342H129.648C129.669 32.7049 129.723 32.8697 129.808 33.0191C129.893 33.1685 130.008 33.2994 130.144 33.4044C130.441 33.637 130.811 33.7572 131.188 33.7437C131.419 33.7541 131.649 33.7135 131.863 33.6247C132.076 33.536 132.268 33.4014 132.423 33.2303L132.85 33.735C132.653 33.961 132.406 34.137 132.128 34.2484C131.822 34.3658 131.498 34.4249 131.17 34.4224C130.753 34.4337 130.34 34.3378 129.97 34.144C129.631 33.9689 129.35 33.7 129.16 33.3695C128.966 33.0247 128.867 32.6343 128.873 32.2384C128.869 31.8494 128.965 31.4659 129.152 31.1246C129.327 30.7958 129.593 30.524 129.917 30.3415C130.254 30.1587 130.631 30.063 131.014 30.063C131.397 30.063 131.774 30.1587 132.11 30.3415C132.426 30.5298 132.685 30.8005 132.859 31.1246C133.04 31.4767 133.133 31.8682 133.128 32.2645C133.146 32.3602 133.137 32.4385 133.128 32.5342ZM130.1 31.0898C129.853 31.3161 129.698 31.6261 129.665 31.9599H132.371C132.343 31.6249 132.187 31.3135 131.936 31.0898C131.676 30.8685 131.346 30.747 131.005 30.747C130.664 30.747 130.334 30.8685 130.074 31.0898H130.1Z" fill="#52BAAB"/>
<path d="M142.36 34.4133V30.3063L140.324 33.7259H139.959L137.923 30.3237V34.4133H137.148V28.7749H137.81L140.159 32.734L142.474 28.7749H143.135V34.4133H142.36Z" fill="#52BAAB"/>
<path d="M148.904 32.5343H145.423C145.472 32.8766 145.65 33.1876 145.919 33.4044C146.22 33.6357 146.592 33.7556 146.972 33.7437C147.203 33.7541 147.433 33.7135 147.647 33.6248C147.861 33.5361 148.052 33.4014 148.208 33.2304L148.634 33.735C148.436 33.9591 148.189 34.1347 147.912 34.2484C147.604 34.367 147.276 34.426 146.946 34.4224C146.528 34.4337 146.115 34.3378 145.745 34.144C145.407 33.969 145.126 33.7001 144.936 33.3696C144.741 33.0248 144.642 32.6343 144.649 32.2384C144.645 31.8495 144.741 31.4659 144.927 31.1247C145.108 30.7996 145.372 30.5291 145.693 30.3415C146.031 30.1552 146.412 30.0593 146.798 30.0631C147.179 30.0591 147.554 30.1552 147.886 30.3415C148.203 30.5274 148.463 30.7987 148.634 31.1247C148.82 31.4753 148.913 31.8678 148.904 32.2645C148.904 32.3602 148.904 32.4386 148.904 32.5343ZM145.884 31.0899C145.634 31.3153 145.476 31.6252 145.441 31.96H148.181C148.146 31.6252 147.988 31.3153 147.738 31.0899C147.48 30.8676 147.151 30.7453 146.811 30.7453C146.471 30.7453 146.142 30.8676 145.884 31.0899Z" fill="#52BAAB"/>
<path d="M156.911 30.5677C157.077 30.7553 157.205 30.9743 157.286 31.2119C157.366 31.4495 157.399 31.7009 157.381 31.9512V34.4137H156.606V32.0469C156.632 31.7087 156.53 31.3732 156.319 31.1072C156.213 30.9993 156.085 30.9155 155.944 30.8615C155.803 30.8074 155.652 30.7844 155.501 30.7939C155.329 30.7849 155.157 30.8129 154.996 30.8759C154.835 30.939 154.69 31.0356 154.57 31.1594C154.32 31.451 154.195 31.8292 154.222 32.2123V34.4137H153.448V32.0469C153.473 31.7087 153.371 31.3732 153.16 31.1072C153.055 30.9993 152.927 30.9155 152.786 30.8615C152.645 30.8074 152.493 30.7844 152.343 30.7939C152.17 30.7849 151.998 30.8129 151.838 30.8759C151.677 30.939 151.532 31.0356 151.412 31.1594C151.162 31.451 151.037 31.8292 151.063 32.2123V34.4137H150.289V30.1413H151.029V30.7765C151.189 30.5589 151.401 30.3853 151.646 30.2719C151.921 30.1522 152.217 30.0928 152.517 30.0978C152.819 30.0953 153.118 30.167 153.387 30.3067C153.638 30.4376 153.844 30.6406 153.978 30.8897C154.146 30.6414 154.377 30.4429 154.648 30.3154C154.951 30.1651 155.285 30.0905 155.623 30.0978C155.858 30.0849 156.094 30.1199 156.315 30.2006C156.536 30.2814 156.739 30.4063 156.911 30.5677Z" fill="#52BAAB"/>
<path d="M159.833 34.1784C159.503 33.9945 159.229 33.7237 159.041 33.3952C158.846 33.0539 158.747 32.666 158.754 32.2728C158.748 31.8797 158.847 31.4921 159.041 31.1503C159.229 30.8245 159.503 30.5566 159.833 30.3759C160.184 30.1892 160.576 30.0935 160.973 30.0975C161.371 30.0912 161.763 30.1871 162.113 30.3759C162.443 30.5566 162.717 30.8245 162.905 31.1503C163.099 31.4921 163.198 31.8797 163.192 32.2728C163.199 32.666 163.1 33.0539 162.905 33.3952C162.717 33.7237 162.443 33.9945 162.113 34.1784C161.763 34.3672 161.371 34.463 160.973 34.4568C160.576 34.4608 160.184 34.365 159.833 34.1784ZM161.713 33.5954C161.929 33.4689 162.107 33.2853 162.226 33.0646C162.351 32.8195 162.413 32.5477 162.409 32.2728C162.414 32.0006 162.352 31.7313 162.226 31.4897C162.109 31.2696 161.931 31.0883 161.713 30.9676C161.488 30.8418 161.235 30.7758 160.977 30.7758C160.72 30.7758 160.467 30.8418 160.242 30.9676C160.024 31.0904 159.843 31.271 159.72 31.4897C159.595 31.7313 159.532 32.0006 159.537 32.2728C159.533 32.5477 159.596 32.8195 159.72 33.0646C159.845 33.2839 160.025 33.4668 160.242 33.5954C160.469 33.715 160.721 33.7775 160.977 33.7775C161.234 33.7775 161.486 33.715 161.713 33.5954Z" fill="#52BAAB"/>
<path d="M165.926 30.298C166.225 30.158 166.553 30.0895 166.883 30.0978V30.8549H166.7C166.519 30.8439 166.338 30.8717 166.168 30.9362C165.999 31.0007 165.845 31.1005 165.717 31.229C165.463 31.5224 165.335 31.9036 165.36 32.2906V34.4224H164.568V30.1414H165.308V30.8549C165.449 30.608 165.666 30.4129 165.926 30.298Z" fill="#52BAAB"/>
<path d="M171.059 30.5325C171.224 30.7033 171.351 30.9071 171.432 31.1306C171.513 31.354 171.546 31.592 171.529 31.829V34.4394H170.798V33.8477C170.663 34.0517 170.468 34.2096 170.241 34.3001C169.965 34.4138 169.669 34.4673 169.371 34.4568C168.959 34.4806 168.552 34.3573 168.222 34.1087C168.088 34.0065 167.979 33.8749 167.904 33.7241C167.828 33.5733 167.788 33.4072 167.787 33.2386C167.787 33.0724 167.824 32.9083 167.895 32.7579C167.965 32.6075 168.068 32.4746 168.196 32.3685C168.578 32.1047 169.039 31.9817 169.501 32.0204H170.728V31.8725C170.737 31.7318 170.717 31.5907 170.667 31.4587C170.618 31.3266 170.541 31.2067 170.441 31.1068C170.197 30.9069 169.885 30.8101 169.571 30.837C169.316 30.8372 169.063 30.8814 168.823 30.9676C168.601 31.0387 168.394 31.1508 168.213 31.2982L167.892 30.7152C168.126 30.5308 168.396 30.3948 168.683 30.315C168.999 30.2159 169.327 30.166 169.658 30.167C170.155 30.1036 170.656 30.2345 171.059 30.5325ZM170.284 33.6649C170.498 33.5362 170.663 33.3404 170.754 33.1081V32.5077H169.562C168.91 32.5077 168.579 32.7339 168.579 33.169C168.576 33.2675 168.597 33.3652 168.641 33.4533C168.685 33.5415 168.751 33.6172 168.831 33.6736C169.032 33.8136 169.274 33.8811 169.519 33.8651C169.788 33.8714 170.053 33.8021 170.284 33.6649Z" fill="#52BAAB"/>
<path d="M176.654 30.3759C176.981 30.5516 177.249 30.8174 177.429 31.1416C177.612 31.4922 177.707 31.8817 177.707 32.2772C177.707 32.6726 177.612 33.0621 177.429 33.4127C177.25 33.7395 176.981 34.0083 176.654 34.1871C176.316 34.3719 175.935 34.4649 175.549 34.4568C175.249 34.461 174.952 34.3986 174.679 34.2741C174.421 34.1507 174.196 33.9654 174.027 33.7346V34.4133H173.27V28.4355H174.044V30.7849C174.211 30.5614 174.433 30.3846 174.688 30.2715C174.962 30.1511 175.259 30.0917 175.558 30.0975C175.941 30.094 176.319 30.19 176.654 30.3759ZM176.219 33.5954C176.442 33.4715 176.626 33.2876 176.75 33.0646C176.881 32.8217 176.947 32.5489 176.941 32.2728C176.948 31.9994 176.882 31.7291 176.75 31.4897C176.633 31.2697 176.455 31.0883 176.237 30.9676C176.012 30.8419 175.759 30.7758 175.501 30.7758C175.244 30.7758 174.991 30.8419 174.766 30.9676C174.548 31.0883 174.37 31.2697 174.253 31.4897C174.127 31.7313 174.064 32.0006 174.07 32.2728C174.066 32.5477 174.128 32.8195 174.253 33.0646C174.372 33.2853 174.55 33.469 174.766 33.5954C174.993 33.715 175.245 33.7776 175.501 33.7776C175.758 33.7776 176.01 33.715 176.237 33.5954H176.219Z" fill="#52BAAB"/>
<path d="M179.1 28.4355H179.874V34.4133H179.1V28.4355Z" fill="#52BAAB"/>
<path d="M185.513 32.5339H182.033C182.054 32.7046 182.108 32.8694 182.193 33.0188C182.278 33.1682 182.392 33.2992 182.529 33.4041C182.826 33.6367 183.196 33.7569 183.573 33.7434C183.804 33.7538 184.034 33.7132 184.248 33.6245C184.461 33.5357 184.653 33.4011 184.808 33.23L185.235 33.7347C185.038 33.9607 184.791 34.1367 184.513 34.2481C184.207 34.3656 183.883 34.4246 183.555 34.4221C183.138 34.4334 182.725 34.3375 182.355 34.1437C182.016 33.9686 181.735 33.6998 181.545 33.3693C181.351 33.0244 181.252 32.634 181.258 32.2381C181.25 31.8486 181.346 31.4641 181.537 31.1243C181.712 30.7955 181.978 30.5237 182.302 30.3412C182.637 30.1537 183.015 30.0577 183.399 30.0628C183.78 30.0567 184.155 30.1529 184.486 30.3412C184.807 30.5265 185.069 30.7978 185.243 31.1243C185.425 31.4764 185.518 31.8679 185.513 32.2642C185.531 32.3599 185.522 32.4382 185.513 32.5339ZM182.485 31.0895C182.238 31.3158 182.083 31.6258 182.05 31.9596H184.782C184.754 31.6197 184.596 31.3034 184.342 31.0754C184.089 30.8475 183.757 30.7249 183.416 30.7328C183.071 30.7266 182.738 30.8545 182.485 31.0895Z" fill="#52BAAB"/>
<defs>
<linearGradient id="paint0_linear_2209_18623" x1="22.9036" y1="13.2653" x2="22.9036" y2="47.3505" gradientUnits="userSpaceOnUse">
<stop stop-color="#5FC3DB"/>
<stop offset="0.53125" stop-color="#52BAAB"/>
<stop offset="1" stop-color="#469979"/>
</linearGradient>
</defs>
</svg>
